<?xml version="1.0" encoding="UTF-8" standalone="no"?><svg xmlns="http://www.w3.org/2000/svg" xmlns:xlink="http://www.w3.org/1999/xlink" contentStyleType="text/css" height="287px" preserveAspectRatio="none" style="width:493px;height:287px;background:#FFFFFF;" version="1.1" viewBox="0 0 493 287" width="493px" zoomAndPan="magnify"><defs/><g><line style="stroke:#181818;stroke-width:0.5;stroke-dasharray:5.0,5.0;" x1="229" x2="229" y1="81.2969" y2="206.6953"/><line style="stroke:#181818;stroke-width:0.5;stroke-dasharray:5.0,5.0;" x1="376.5" x2="376.5" y1="81.2969" y2="206.6953"/><text fill="#000000" font-family="sans-serif" font-size="14" lengthAdjust="spacing" textLength="28" x="212" y="77.9951">Bob</text><ellipse cx="229" cy="13.5" fill="#E2E2F0" rx="8" ry="8" style="stroke:#181818;stroke-width:0.5;"/><path d="M229,21.5 L229,48.5 M216,29.5 L242,29.5 M229,48.5 L216,63.5 M229,48.5 L242,63.5 " fill="none" style="stroke:#181818;stroke-width:0.5;"/><text fill="#000000" font-family="sans-serif" font-size="14" lengthAdjust="spacing" textLength="28" x="212" y="218.6904">Bob</text><ellipse cx="229" cy="230.4922" fill="#E2E2F0" rx="8" ry="8" style="stroke:#181818;stroke-width:0.5;"/><path d="M229,238.4922 L229,265.4922 M216,246.4922 L242,246.4922 M229,265.4922 L216,280.4922 M229,265.4922 L242,280.4922 " fill="none" style="stroke:#181818;stroke-width:0.5;"/><text fill="#000000" font-family="sans-serif" font-size="14" lengthAdjust="spacing" textLength="44" x="314.5" y="77.9951">This is</text><a href="http://plantuml.com/sequence" target="_top" title="http://plantuml.com/sequence" xlink:actuate="onRequest" xlink:href="http://plantuml.com/sequence" xlink:show="new" xlink:title="http://plantuml.com/sequence" xlink:type="simple"><text fill="#0000FF" font-family="sans-serif" font-size="14" lengthAdjust="spacing" text-decoration="underline" textLength="32" x="362.5" y="77.9951">Alice</text></a><text fill="#000000" font-family="sans-serif" font-size="14" lengthAdjust="spacing" textLength="35" x="398.5" y="77.9951">actor</text><ellipse cx="377" cy="13.5" fill="#E2E2F0" rx="8" ry="8" style="stroke:#181818;stroke-width:0.5;"/><path d="M377,21.5 L377,48.5 M364,29.5 L390,29.5 M377,48.5 L364,63.5 M377,48.5 L390,63.5 " fill="none" style="stroke:#181818;stroke-width:0.5;"/><text fill="#000000" font-family="sans-serif" font-size="14" lengthAdjust="spacing" textLength="44" x="314.5" y="218.6904">This is</text><a href="http://plantuml.com/sequence" target="_top" title="http://plantuml.com/sequence" xlink:actuate="onRequest" xlink:href="http://plantuml.com/sequence" xlink:show="new" xlink:title="http://plantuml.com/sequence" xlink:type="simple"><text fill="#0000FF" font-family="sans-serif" font-size="14" lengthAdjust="spacing" text-decoration="underline" textLength="32" x="362.5" y="218.6904">Alice</text></a><text fill="#000000" font-family="sans-serif" font-size="14" lengthAdjust="spacing" textLength="35" x="398.5" y="218.6904">actor</text><ellipse cx="377" cy="230.4922" fill="#E2E2F0" rx="8" ry="8" style="stroke:#181818;stroke-width:0.5;"/><path d="M377,238.4922 L377,265.4922 M364,246.4922 L390,246.4922 M377,265.4922 L364,280.4922 M377,265.4922 L390,280.4922 " fill="none" style="stroke:#181818;stroke-width:0.5;"/><a href="http://plantuml.com/start" target="_top" title="http://plantuml.com/start" xlink:actuate="onRequest" xlink:href="http://plantuml.com/start" xlink:show="new" xlink:title="http://plantuml.com/start" xlink:type="simple"><polygon fill="#181818" points="365,111.4297,375,115.4297,365,119.4297,369,115.4297" style="stroke:#181818;stroke-width:1.0;"/><line style="stroke:#181818;stroke-width:1.0;" x1="229" x2="371" y1="115.4297" y2="115.4297"/><text fill="#000000" font-family="sans-serif" font-size="13" lengthAdjust="spacing" textLength="30" x="236" y="110.3638">hello</text></a><a href="http://plantuml.com/start" target="_top" title="http://plantuml.com/start" xlink:actuate="onRequest" xlink:href="http://plantuml.com/start" xlink:show="new" xlink:title="http://plantuml.com/start" xlink:type="simple"><path d="M96,96.2969 L96,121.2969 L224,121.2969 L224,106.2969 L214,96.2969 L96,96.2969 " fill="#FEFFDD" style="stroke:#181818;stroke-width:0.5;"/><path d="M214,96.2969 L214,106.2969 L224,106.2969 L214,96.2969 " fill="#FEFFDD" style="stroke:#181818;stroke-width:0.5;"/><text fill="#000000" font-family="sans-serif" font-size="13" lengthAdjust="spacing" textLength="107" x="102" y="113.3638">a note with a link</text></a><a href="http://plantuml.com/start" target="_top" title="http://plantuml.com/start" xlink:actuate="onRequest" xlink:href="http://plantuml.com/start" xlink:show="new" xlink:title="http://plantuml.com/start" xlink:type="simple"><polygon fill="#181818" points="240,146.5625,230,150.5625,240,154.5625,236,150.5625" style="stroke:#181818;stroke-width:1.0;"/><line style="stroke:#181818;stroke-width:1.0;" x1="234" x2="376" y1="150.5625" y2="150.5625"/><text fill="#000000" font-family="sans-serif" font-size="13" lengthAdjust="spacing" textLength="59" x="246" y="145.4966">hello with</text><a href="http://plantuml.com/start" target="_top" title="Tooltip for message" xlink:actuate="onRequest" xlink:href="http://plantuml.com/start" xlink:show="new" xlink:title="Tooltip for message" xlink:type="simple"><text fill="#0000FF" font-family="sans-serif" font-size="13" lengthAdjust="spacing" text-decoration="underline" textLength="61" x="309" y="145.4966">some link</text></a></a><a href="http://plantuml.com/start" target="_top" title="http://plantuml.com/start" xlink:actuate="onRequest" xlink:href="http://plantuml.com/start" xlink:show="new" xlink:title="http://plantuml.com/start" xlink:type="simple"><path d="M382,131.4297 L382,156.4297 L486,156.4297 L486,141.4297 L476,131.4297 L382,131.4297 " fill="#FEFFDD" style="stroke:#181818;stroke-width:0.5;"/><path d="M476,131.4297 L476,141.4297 L486,141.4297 L476,131.4297 " fill="#FEFFDD" style="stroke:#181818;stroke-width:0.5;"/><text fill="#000000" font-family="sans-serif" font-size="13" lengthAdjust="spacing" textLength="83" x="388" y="148.4966">another note</text></a><path d="M5,166.5625 L5,191.5625 L224,191.5625 L224,176.5625 L214,166.5625 L5,166.5625 " fill="#FEFFDD" style="stroke:#181818;stroke-width:0.5;"/><path d="M214,166.5625 L214,176.5625 L224,176.5625 L214,166.5625 " fill="#FEFFDD" style="stroke:#181818;stroke-width:0.5;"/><text fill="#000000" font-family="sans-serif" font-size="13" lengthAdjust="spacing" textLength="77" x="11" y="183.6294">You can use</text><a href="http://plantuml.com/start" target="_top" title="http://plantuml.com/start" xlink:actuate="onRequest" xlink:href="http://plantuml.com/start" xlink:show="new" xlink:title="http://plantuml.com/start" xlink:type="simple"><text fill="#0000FF" font-family="sans-serif" font-size="13" lengthAdjust="spacing" text-decoration="underline" textLength="83" x="92" y="183.6294">links in notes</text></a><text fill="#000000" font-family="sans-serif" font-size="13" lengthAdjust="spacing" textLength="30" x="179" y="183.6294">also.</text><!--SRC=[XL4nJWD13Ept5LPwSdqA97X36XIbC1jVTeLlVPnzea3vEuuNGSKXRU6rnZEUCMQJ1PxbDM5KksEf2lvEfs8s7uPXPcosJhpFCWrAxokrJF34DTFv336r0zJUISu43u_zynU7uM8-Ue12p9AQ607JQDlu180Gs8zgnMkkxIrHkqGpTKMNlc_mJTsH6woVHn6sEiFerYTInIlTG6MYO7VH45pgjTY_Rj2nXPQ-pgyf6IFU5raXOuDLDtC9NJz02ngz9ymg-n-VNm00]--></g></svg>