<?xml version="1.0" encoding="UTF-8" standalone="no"?>
<!-- Generator: Adobe Illustrator 12.0.0, SVG Export Plug-In . SVG Version: 6.00 Build 51448)  -->

<svg
   xmlns:dc="http://purl.org/dc/elements/1.1/"
   xmlns:cc="http://creativecommons.org/ns#"
   xmlns:rdf="http://www.w3.org/1999/02/22-rdf-syntax-ns#"
   xmlns:svg="http://www.w3.org/2000/svg"
   xmlns="http://www.w3.org/2000/svg"
   xmlns:sodipodi="http://sodipodi.sourceforge.net/DTD/sodipodi-0.dtd"
   xmlns:inkscape="http://www.inkscape.org/namespaces/inkscape"
   version="1.1"
   id="Layer_1"
   width="614.286"
   height="441.429"
   viewBox="0 0 614.286 441.429"
   overflow="visible"
   enable-background="new 0 0 614.286 441.429"
   xml:space="preserve"
   inkscape:version="0.48.4 r9939"
   sodipodi:docname="Tetralogy_of_Fallot.svg"><metadata
   id="metadata408"><rdf:RDF><cc:Work
       rdf:about=""><dc:format>image/svg+xml</dc:format><dc:type
         rdf:resource="http://purl.org/dc/dcmitype/StillImage" /><dc:title></dc:title></cc:Work></rdf:RDF></metadata><defs
   id="defs406">
	
	
	
	
	
	
	
	
	
	
	
	
	
	
	
	
	
	
	
	
	
	
	
</defs><sodipodi:namedview
   pagecolor="#ffffff"
   bordercolor="#666666"
   borderopacity="1"
   objecttolerance="10"
   gridtolerance="10"
   guidetolerance="10"
   inkscape:pageopacity="0"
   inkscape:pageshadow="2"
   inkscape:window-width="1366"
   inkscape:window-height="746"
   id="namedview404"
   showgrid="false"
   inkscape:zoom="1.0288367"
   inkscape:cx="181.53975"
   inkscape:cy="254.3994"
   inkscape:window-x="-8"
   inkscape:window-y="-8"
   inkscape:window-maximized="1"
   inkscape:current-layer="Layer_1" />



<radialGradient
   id="XMLID_20_"
   cx="139.5127"
   cy="102.2969"
   r="74.8281"
   gradientTransform="matrix(1 0 0 -1 0 425.1426)"
   gradientUnits="userSpaceOnUse">
	<stop
   offset="0"
   style="stop-color:#95EDFC"
   id="stop10" />
	<stop
   offset="1"
   style="stop-color:#0060B6"
   id="stop12" />
</radialGradient>

<linearGradient
   id="XMLID_21_"
   gradientUnits="userSpaceOnUse"
   x1="142.3008"
   y1="210.6851"
   x2="158.3005"
   y2="247.6844"
   gradientTransform="matrix(1 0 0 -1 0 425.1426)">
	<stop
   offset="0"
   style="stop-color:#00A0C6"
   id="stop17" />
	<stop
   offset="1"
   style="stop-color:#0A0A9E"
   id="stop19" />
</linearGradient>

<radialGradient
   id="XMLID_22_"
   cx="87.0127"
   cy="172.7969"
   r="50.589"
   gradientTransform="matrix(1 0 0 -1 0 425.1426)"
   gradientUnits="userSpaceOnUse">
	<stop
   offset="0"
   style="stop-color:#95EDFC"
   id="stop24" />
	<stop
   offset="1"
   style="stop-color:#0060B6"
   id="stop26" />
</radialGradient>

<linearGradient
   id="XMLID_23_"
   gradientUnits="userSpaceOnUse"
   x1="85.7363"
   y1="202.2969"
   x2="85.7363"
   y2="216.2973"
   gradientTransform="matrix(1 0 0 -1 0 425.1426)">
	<stop
   offset="0"
   style="stop-color:#3696C6"
   id="stop31" />
	<stop
   offset="1"
   style="stop-color:#0A0A9E"
   id="stop33" />
</linearGradient>

<linearGradient
   id="XMLID_24_"
   gradientUnits="userSpaceOnUse"
   x1="65.4106"
   y1="154.3472"
   x2="58.4103"
   y2="140.3465"
   gradientTransform="matrix(1 0 0 -1 0 425.1426)">
	<stop
   offset="0"
   style="stop-color:#3696C6"
   id="stop38" />
	<stop
   offset="1"
   style="stop-color:#080856"
   id="stop40" />
</linearGradient>

<radialGradient
   id="XMLID_25_"
   cx="187.0122"
   cy="102.7964"
   r="95.3129"
   gradientTransform="matrix(1 0 0 -1 0 425.1426)"
   gradientUnits="userSpaceOnUse">
	<stop
   offset="0"
   style="stop-color:#FFBF00"
   id="stop45" />
	<stop
   offset="1"
   style="stop-color:#BF0000"
   id="stop47" />
</radialGradient>

<linearGradient
   id="XMLID_26_"
   gradientUnits="userSpaceOnUse"
   x1="484.1606"
   y1="243.4707"
   x2="484.6277"
   y2="252.9927"
   gradientTransform="matrix(0.7034 0.7108 0.7108 -0.7034 -310.282 39.2985)">
	<stop
   offset="0"
   style="stop-color:#BF0000"
   id="stop52" />
	<stop
   offset="1"
   style="stop-color:#0A0A9E"
   id="stop54" />
</linearGradient>

<linearGradient
   id="XMLID_27_"
   gradientUnits="userSpaceOnUse"
   x1="623.1812"
   y1="335.3008"
   x2="623.6482"
   y2="344.8229"
   gradientTransform="matrix(0.3573 0.934 0.934 -0.3573 -320.592 -232.0102)">
	<stop
   offset="0"
   style="stop-color:#BF0000"
   id="stop59" />
	<stop
   offset="1"
   style="stop-color:#0A0A9E"
   id="stop61" />
</linearGradient>

<radialGradient
   id="XMLID_28_"
   cx="88.0132"
   cy="292.2959"
   r="91.7821"
   gradientTransform="matrix(1 0 0 -1 0 425.1426)"
   gradientUnits="userSpaceOnUse">
	<stop
   offset="0"
   style="stop-color:#FFBF00"
   id="stop66" />
	<stop
   offset="1"
   style="stop-color:#BF0000"
   id="stop68" />
</radialGradient>







<radialGradient
   id="XMLID_29_"
   cx="465.9048"
   cy="164.3486"
   r="30.8707"
   gradientTransform="matrix(1 0 0 -1 0 425.1426)"
   gradientUnits="userSpaceOnUse">
	<stop
   offset="0"
   style="stop-color:#FF2400"
   id="stop147" />
	<stop
   offset="1"
   style="stop-color:#0060B6"
   id="stop149" />
</radialGradient>

<linearGradient
   id="XMLID_30_"
   gradientUnits="userSpaceOnUse"
   x1="454.7915"
   y1="208.1812"
   x2="470.7915"
   y2="245.1812"
   gradientTransform="matrix(1 0 0 -1 0 425.1426)">
	<stop
   offset="0"
   style="stop-color:#00A0C6"
   id="stop154" />
	<stop
   offset="1"
   style="stop-color:#0A0A9E"
   id="stop156" />
</linearGradient>

<radialGradient
   id="XMLID_31_"
   cx="399.5044"
   cy="170.2939"
   r="50.589"
   gradientTransform="matrix(1 0 0 -1 0 425.1426)"
   gradientUnits="userSpaceOnUse">
	<stop
   offset="0"
   style="stop-color:#95EDFC"
   id="stop161" />
	<stop
   offset="1"
   style="stop-color:#0060B6"
   id="stop163" />
</radialGradient>

<linearGradient
   id="XMLID_32_"
   gradientUnits="userSpaceOnUse"
   x1="398.228"
   y1="199.7935"
   x2="398.228"
   y2="213.7943"
   gradientTransform="matrix(1 0 0 -1 0 425.1426)">
	<stop
   offset="0"
   style="stop-color:#3696C6"
   id="stop168" />
	<stop
   offset="1"
   style="stop-color:#0A0A9E"
   id="stop170" />
</linearGradient>

<linearGradient
   id="XMLID_33_"
   gradientUnits="userSpaceOnUse"
   x1="377.9019"
   y1="151.8447"
   x2="370.9015"
   y2="137.844"
   gradientTransform="matrix(1 0 0 -1 0 425.1426)">
	<stop
   offset="0"
   style="stop-color:#3696C6"
   id="stop175" />
	<stop
   offset="1"
   style="stop-color:#080856"
   id="stop177" />
</linearGradient>

<radialGradient
   id="XMLID_34_"
   cx="496.7339"
   cy="100.2935"
   r="95.8986"
   gradientTransform="matrix(1 0 0 -1 0 425.1426)"
   gradientUnits="userSpaceOnUse">
	<stop
   offset="0"
   style="stop-color:#FFBF00"
   id="stop182" />
	<stop
   offset="1"
   style="stop-color:#BF0000"
   id="stop184" />
</radialGradient>

<radialGradient
   id="XMLID_35_"
   cx="465.895"
   cy="166.6895"
   r="0"
   gradientTransform="matrix(1 0 0 -1 0 425.1426)"
   gradientUnits="userSpaceOnUse">
	<stop
   offset="0"
   style="stop-color:#FFBF00"
   id="stop189" />
	<stop
   offset="1"
   style="stop-color:#BF0000"
   id="stop191" />
</radialGradient>

<linearGradient
   id="XMLID_36_"
   gradientUnits="userSpaceOnUse"
   x1="705.7437"
   y1="463.8281"
   x2="706.2106"
   y2="473.3491"
   gradientTransform="matrix(0.7034 0.7108 0.7108 -0.7034 -310.282 39.2985)">
	<stop
   offset="0"
   style="stop-color:#BF0000"
   id="stop196" />
	<stop
   offset="1"
   style="stop-color:#0A0A9E"
   id="stop198" />
</linearGradient>

<linearGradient
   id="XMLID_37_"
   gradientUnits="userSpaceOnUse"
   x1="737.1704"
   y1="626.2676"
   x2="737.6375"
   y2="635.7897"
   gradientTransform="matrix(0.3573 0.934 0.934 -0.3573 -320.592 -232.0102)">
	<stop
   offset="0"
   style="stop-color:#BF0000"
   id="stop203" />
	<stop
   offset="1"
   style="stop-color:#0A0A9E"
   id="stop205" />
</linearGradient>

<radialGradient
   id="XMLID_38_"
   cx="400.5044"
   cy="289.7939"
   r="91.7817"
   gradientTransform="matrix(1 0 0 -1 0 425.1426)"
   gradientUnits="userSpaceOnUse">
	<stop
   offset="0"
   style="stop-color:#FFBF00"
   id="stop210" />
	<stop
   offset="1"
   style="stop-color:#BF0000"
   id="stop212" />
</radialGradient>











<g
   id="g3551"><path
     fill="#FFFFFF"
     id="path3"
     d="M614.286,429.429c0,6.627-4.958,12-11.073,12H11.073c-6.116,0-11.073-5.373-11.073-12V12  C0,5.373,4.958,0,11.073,0h592.139c6.115,0,11.073,5.373,11.073,12V429.429z" /><path
     id="path5"
     d="M81.715,210.594c0.075-3.646-4.289-5.367-7.155-6.232  c-4.171-1.261-7.626,0.578-11.85,0.039c-2.932-0.373-5.786-1.373-8.509-2.492c-4.19-1.721-6.146-0.289-8.444,3.714  c-2.697,4.698,3.424,8.213,7.254,9.778c2.423,0.989,4.38,1.447,7.002,1.445c1.472,0,2.998,0.143,4.444-0.17  c1.437-0.311,2.771-1.395,4.245-1.297c-2.347,2.856-5.892,2.443-9.165,3.197c-3.349,0.77-6.674,1.689-9.889,2.909  c-3.149,1.195-5.785,3.144-8.867,4.416c-1.127,0.466-2.834,0.825-3.611,1.888c-0.979,1.34-0.679,4.02-0.477,5.563  c0.272,2.074,1.194,5.26,3.568,5.803c0.993,0.229,1.006,0.111,1.937-0.32c2.568-1.188,4.604-3.584,7.37-4.289  c2.609-0.666,5.537-1.291,8.217-1.725c3.807-0.613,9.096,1.236,11.717-1.997c2.59-3.197,5.211-7.173,7.333-10.732  C78.312,217.616,81.654,213.634,81.715,210.594z"
     stroke="#8F0000"
     fill="#BF0000" /><path
     id="path7"
     d="M114.513,124.347c-5.104-2.643-15.794-5.333-21.123-3.123  c-4.832,2.006-7.044,9.273-5.351,14.096c1.256,3.578,2.439,2.674,6.448,3.002c2.413,0.197,7.609,2.928,9.649,2.426  c3.395-0.834,9.27-12.155,9.877-15.9"
     stroke="#003CFF"
     fill="#0060B6" /><path
     id="path14"
     d="M173.886,380.854c5.375-1.213,10.656-3.886,13.122-9.062  c8.445-17.729-12.101-34.537-21.669-46.006c-7.165-8.589-12.797-16.861-14.243-28.219c-1.39-10.917-0.03-22.201,2.417-32.873  c0.721-3.145,10.679-34.913,6.574-35.935c-0.598-4.176,4.025-9.45,5.44-13.416c1.431-4.009,3.833-7.49,5.374-11.5  c3.022-7.861,3.815-17.018-0.764-24.123c-5.491-8.518-20.364-6.236-28.038-1.851c-13.192,7.538-16.931,20.423-21.71,33.56  c-5.902,16.22-10.497,33.094-15.39,49.414c-3.086,10.291,4.886,17.689,7.932,26.674c2.793,8.238-3.651,14.17-11.381,11.326  c-5.292-1.945-7.075-5.993-11.649-8.375c-4.318-2.247-12.231-3.434-17.048-3.551c-4.663-0.115-9.417,3.254-10.739,7.901  c-1.567,5.509-0.735,13.091,0.787,18.511c1.451,5.166,3.729,9.223,7.054,13.608c8.354,11.021,17.064,23.287,28.458,31.401  c7.559,5.386,16.553,5.328,24.997,8.091c4.743,1.551,9.311,4.428,13.942,6.392c4.67,1.979,8.159,5.118,12.691,6.975  c3.776,1.547,6.206,3.213,10.455,3.092C164.871,382.769,169.641,381.813,173.886,380.854z"
     stroke="#003CFF"
     fill="url(#XMLID_20_)" /><path
     id="path21"
     d="M140.43,181.958c-0.115,0.118-0.229,0.236-0.342,0.357  c-4.41,4.666-11.572,8.621-12.697,15.535c-0.874,5.375-2.24,16.573,3.734,19.897c3.993,2.221,7.569-1.588,10.863-0.899  c5.383,1.122,3.984,8.438,10.053,8.995c12.743,1.174,14.375-20.235,17.834-28.207c1.949-4.491,4.427-10.707,2.012-15.705  c-2.283-4.723-9.432-6.932-14.273-7.086C150.56,174.622,145.056,177.215,140.43,181.958z"
     stroke-width="0.5"
     stroke="#0060B6"
     fill="url(#XMLID_21_)" /><path
     id="path28"
     d="M47.015,251.383c-0.84,5.064-0.977,11.787-3.929,16.109  c-2.43,3.561-4.88,4.689-4.862,9.648c0.032,8.576,5.919,16.205,9.289,23.717c3.07,6.844,1.233,15.979,1.512,23.48  c0.709,19.145-0.528,38.406-0.512,57.565c0.002,2.746-0.381,5.212,0.84,7.543c2.181,4.166,10.001,7.281,14.237,8.046  c9.714,1.75,24.32-0.076,24.046-12.248c-0.099-4.386-1.608-8.972-2.012-13.373c-0.655-7.133-0.065-13.783,0.277-20.889  c0.477-9.906-1.484-12.382-7.79-19.582c-2.792-3.188-4.596-6.216-7.982-8.688c-3.488-2.549-6.707-4.867-9.226-8.519  c-5.364-7.772-4.059-16.169,3.134-22.272c12.213-10.364,28.521,3.762,39.448,9.062c2.237,1.084,4.684,2.089,7.026,0.737  c2.912-1.682,1.146-3.297,2.627-5.799c1.215,0.525,1.082-0.219,2.286-0.162c0.956-3.78-4.508-8.432-6.063-11.789  c-2.322-5.012-4.284-11.145-5.374-16.613c-3.358-16.855,17.928-34.744,4.135-50.515c-4.622-5.282-5.991-8.525-7.097-15  c-1.109-6.486-3.221-12.91-3.988-19.472c-0.593-5.069-0.899-10.47-0.552-15.647c0.188-2.805,1.001-5.703,1.663-8.49  c0.565-2.379,2.405-6.168,2.484-8.389c0.313-8.792-24.003-5.572-28.645-0.023c-2.079,2.484-1.283,4.197-0.963,6.988  c0.644,5.621,0.22,10.629-0.889,16.186c-2.172,10.891-3.903,21.396-7.511,31.864C57.375,220.1,49.658,235.451,47.015,251.383z"
     stroke="#003CFF"
     fill="url(#XMLID_22_)" /><path
     id="path35"
     d="M83.005,222.425c6.81-1.475,11.983,0.959,18.443,2.232c0.196,0.038-3.882-8.941-4.591-9.806  c-2.341-2.848-5.776-5.747-9.19-6.031c-5.016-0.418-18.754,8.777-17.579,16.431C74.648,225.913,78.685,223.361,83.005,222.425z"
     fill="url(#XMLID_23_)" /><path
     id="path42"
     d="M63.601,273.16c-1.785-1.631-3.467-3.568-5.233-4.742c-4.284-2.848-10.251-2.303-11.005,3.414  c-0.58,4.392,2.264,9.519,4.78,12.908c2.518,3.393,4.456,2.568,7.894,1.105c2.557-1.088,4.691-1.977,7.477-2.637  c2.277-0.539,7.171-0.25,8.998-1.438c9.046-5.886-7.065-5.362-8.996-6.022C66.12,275.271,64.834,274.289,63.601,273.16z"
     fill="url(#XMLID_24_)" /><path
     id="path49"
     d="M160.625,235.859c3.069-13.209,6.634-27.138,15.85-37.514  c5.219-5.875,6.985-10.477,9.676-17.889c1.915-5.275,4.849-8.828,9.35-12.25c2.245-1.706,9.78-7.973,10.935-3.758  c1.466,5.352-4.686,12.068-6.38,16.92c-2.236,6.402,3.247,8.719,8.382,11.104c-0.498,0.587-0.574,1.311-1.249,1.896  c1.099-0.952,7.146-2.484,8.876-3.113c3.297-1.198,5.942-0.885,8.949,1.092c2.586,1.699,7.188,6.854,6.266,10.295  c-0.983,3.662-17.602,9.916-8.642,15.604c3.807,2.416,7.377-1.642,10.887-2.525c4.207-1.059,6.501,1.49,7.875,6  c1.696,5.563,0.41,6.093-3.768,8.224c-5,2.553-12.632,6.719-11.798,13.285c0.742,5.846,6.691,12.111,9.311,17.307  c6.693,13.283,10.872,27.727,13.737,42.283c2.567,13.044,3.183,25.379,1.541,38.613c-1.574,12.688-6.817,27.182-18.523,33.885  c-8.393,4.805-19.253,6.818-27.273,0.462c-14.729-11.673-19.746-32.079-27.213-48.559c-3.519-7.765-7.635-15.015-10.875-22.938  c-2.013-4.923-4.372-9.793-5.563-14.994c-1.814-7.922-3.93-15.975-4.688-24.088C155.411,255.822,158.514,244.951,160.625,235.859z"
     stroke="#8F0000"
     fill="url(#XMLID_25_)" /><path
     id="path56"
     d="M202.317,211.159c2.983,1.941,3.958,4.694,5.817,7.496c0.056,0.087,1.851-4.62,1.909-5.188  c0.192-1.874,0.011-4.162-1.113-5.504c-1.649-1.97-9.924-3.653-12.279-0.478C198.049,209.377,200.424,209.926,202.317,211.159z"
     fill="url(#XMLID_26_)" /><path
     id="path63"
     d="M214.691,228.902c1.947,2.979,1.729,5.891,2.302,9.205c0.017,0.1,3.557-3.482,3.839-3.979  c0.932-1.639,1.688-3.806,1.2-5.486c-0.716-2.47-7.609-7.345-11.046-5.388C211.502,225.554,213.457,227.013,214.691,228.902z"
     fill="url(#XMLID_27_)" /><path
     id="path70"
     d="M139.486,176.844c-7.493,9.971-16.725,19.688-18.355,32.501  c-0.595,4.681-0.787,10.197-6.795,8.191c-3.606-1.203-8.034-5.302-10.38-8.263c-4.415-5.572-7.188-12.322-8.976-19.154  c-3.418-13.066-3.754-27.615-0.604-40.775c4.5-18.801,13.985-38.014,28.139-51.498c4.492-4.279,8.286-6.619,7.606-13.361  c-0.565-5.599-3.601-10.568-6.942-15.017c2.54-2.903,7.633-6.599,11.379-7.668c4.026-1.149,2.699-0.601,4.044,2.841  c3.907,9.994,8.123,18.097,17.396,24.03c-1.822-1.363-3.153-3.13-4.333-4.871c7.074,0.492,12.904-3.414,17.236-8.564  c1.734-2.062,4.146-4.567,5.51-6.888c0.836-1.423,0.957-3.482,2.066-4.623c2.256-2.322,12.581-2.78,12.86,1.611  c0.118,1.861-5.988,6.884-6.76,9.174c-1.65,4.903-0.571,11.515-0.563,16.653c-0.46-6.37,1.387-16.011,6.137-20.437  c6.699-6.243,10.428,1.394,15.732,6.055c-2.816-2.476-6.478,4.577-7.019,6.12c-3.144,8.979,2.34,13.573,5.807,20.967  c6.571,14.018,7.981,32.439,4.809,47.45c0.435-2.056-8.234,0.153-9,0.245c-3.418,0.411-7.661-0.656-10.938-1.617  c-4.035-1.184-9.165-1.935-12.662-4.279c-3.184-2.135-4.914-5.803-8.072-8.008c-10.048-7.02-18.506,2.441-21.821,11.674  c-1.851,5.156-0.698,10.219,0.65,15.001c0.826,2.928,1.402,2.44-0.25,5.415C143.987,172.269,141.266,174.479,139.486,176.844z"
     stroke="#8F0000"
     fill="url(#XMLID_28_)" /><g
     id="g72">
	<path
   id="path74"
   d="M145.297,150.553c0.519-1.881,1.322-3.756,2.377-5.746c0.949-1.793,2.074-3.466,3.509-4.908   c1.283-1.289,2.964-3.055,4.829-3.391c2.166-0.389,5.388,0.916,7.44,1.608c4.516,1.522,8.742,4.335,13.671,4.22   c4.383-0.102,8.695,1.164,13,1.871c5.982,0.982,12.28,0.896,18.351,0.527c4.176-0.254,8.285-1.167,12.472-1.32   c2.013-0.074,4.067-0.014,6.028,0.488c1.671,0.428,3.231,2.215,4.319,3.587c4.451,5.618,3.333,14.735-2.783,18.87   c-2.876,1.943-5.37,1.207-8.673,1.449c-5.156,0.378-11.18,1.371-16.214,2.637c-8.937,2.246-14.271,6.904-18.126,14.775   c-2.884,5.891-7.34,12.011-11.884,16.623c-0.828-9.308,2.26-22.422-9.214-26.358c-4.718-1.618-10.067-0.64-14.825,0.28   c-4.448,0.858-9.384,1.819-12.83,4.992c0.322-3.771,4.699-7.826,6.823-10.898c2.28-3.299,2.716-4.779,1.839-8.662   C144.598,157.609,144.308,154.148,145.297,150.553z"
   fill="#0060B6" />
	<path
   id="path76"
   d="M173.68,202.346c0.745-2.904,4.323-5.481,6.008-7.874c2.252-3.197,4.173-6.292,5.951-9.792   c3.339-6.57,8.394-10.563,15.208-13.037c1.937-0.703,3.611-1.752,5.625-2.305c2.045-0.563,4.116-0.879,6.207-1.113   c3.609-0.402,7.225-0.652,10.839-0.915c1.604-0.116,2.494,0.167,3.835-0.716c1.202-0.791,2.445-1.571,3.29-2.769   c1.79-2.538,3.983-5.877,3.567-9.118c-0.316-2.467-1.312-4.549-2.518-6.68c-0.761-1.344-1.265-2.67-2.671-3.519   c-2.639-1.595-6.235-1.231-9.163-0.954c-4.22,0.399-8.454,0.787-12.684,0.967c-2.363,0.101-4.744,0.193-7.112,0.163   c-2.581-0.033-5.334,0.278-7.895-0.122c-3.137-0.49-6.242-1.139-9.358-1.717c-1.755-0.324-3.529-0.492-5.302-0.707   c-1.649-0.2-3.224-0.818-4.864-0.967c-2.9-0.262-4.866-1.505-7.59-2.284c-1.409-0.403-2.87-0.63-4.234-1.166   c-1.507-0.592-2.568-0.86-4.307-0.876"
   stroke="#003CFF"
   fill="none" />
	<path
   id="path78"
   d="M136.763,180.346c0.823-1.27,1.038-2.463,1.988-3.676c1.504-1.92,2.506-4.129,3.949-6.086   c1.385-1.878,3.619-4.191,3.313-6.738"
   stroke="#003CFF"
   fill="none" />
</g><path
     id="path80"
     d="M155.365,171.846c4.223,0,8.584,0.891,12.28,2.996c2.299,1.311,3.925,3.523,5.201,5.789  c2.144,3.804,3.055,8.617,3.049,12.943c-0.003,1.833,0.141,3.674-0.054,5.502c-0.073,0.689-0.448,1.588-0.229,2.263  c0.219,0.671,1.153,1.263,1.616,1.755c1.08,1.148,2.152,2.816,3.546,3.58c-1.501-0.822,1.312-6.485,1.824-7.465  c1.178-2.253,3.846-4.508,6.092-5.604c3.357-1.635,7.231-1.707,10.795-1.04c2.286,0.429,4.072,1.411,6.159,2.381  c1.796,0.835,3.113,2.379,4.712,3.48c2.677,1.845,4.617,5.189,6.703,7.651c2.605,3.074,5.812,5.919,7.625,9.577  c0.876,1.767,2.165,3.195,3.187,4.907c1.063,1.783,1.926,3.695,2.55,5.676c0.75,2.381,0.58,5.154,0.342,7.617  c-0.223,2.304-0.529,4.635,0.156,6.896c0.296,0.978,0.708,2.015,1.376,2.801c0.724,0.854,1.573,0.918,2.484,1.385  c7.306,3.74,9.457,10.896,14.234,16.836c2.325,2.893,4.078,6.098,5.249,9.625c2.825,8.514,4.811,17.332,5.821,26.246  c0.989,8.719,0.248,17.184,0.18,25.91c-0.05,6.361,0.226,12.688,0.012,19.029c-0.218,6.491-0.751,13.129-1.951,19.52  c-1.342,7.145-4.67,13.002-8.324,19.193c-2.536,4.297-5.765,9.102-10.3,11.5c-4.358,2.305-9.486,3.803-14.255,4.809  c-4.238,0.893-8.655,1.609-12.989,1.742c-2.424,0.074-4.831,0.162-7.248,0.256c-8.723,0.338-17.879-1.805-26.443-3.754  c-11.388-2.59-22.92-4.975-34.026-8.652c-5.842-1.932-11.496-4.135-17.137-6.602c-1.891-0.828-3.851-1.559-5.621-2.604  c-1.781-1.051-3.985-1.183-5.95-1.799c-3.034-0.952-5.354-2.7-8.053-4.377c-2.903-1.806-5.847-3.545-8.736-5.371  c-2.852-1.804-5.497-3.771-8.235-5.729c-2.446-1.748-4.951-3.28-7.484-4.896c-3.114-1.985-6.09-4.176-9.061-6.366  c-1.415-1.044-3.106-1.994-4.381-3.199c-1.07-1.013-1.87-2.475-2.78-3.666c-3.986-5.225-8.349-10.328-10.784-16.516  c-2.008-5.1-3.429-10.492-3.101-16.011c0.15-2.519,0.333-5.032,0.194-7.562c-0.159-2.912-1.141-6.816-3.489-8.736  c-11.108-4.168-11.955-18.922-12.005-20.12c-0.478-6.423,2.164-17.466,4.012-20.976c0.271-0.516,0.811-1.026,0.998-1.565  c4.013-10.632,8.53-15.024,9.797-18.287c1.841-6.219,10.054-14.68,11.313-16.467c0.803-1.139,1.678-2.039,2.537-3.127  c1.799-2.279,3.699-4.811,5.668-6.906c2.326-2.475,4.63-5.152,7.697-6.719c2.757-1.408,6.142-2.203,9.284-1.85  c2.803,0.316,5.67,1.641,7.744,3.5c2.781,2.492,4.791,5.691,7.342,8.397c1.104,1.171,2.345,2.142,3.373,3.345  c1,1.171,2.455,1.636,3.595,2.616c0.867,0.747,1.33,1.339,2.509,1.338c3.23-0.001,4.228-3.63,4.816-6.181  c0.343-1.486,0.558-3.008,1.129-4.406c0.749-1.833,1.269-3.777,1.93-5.645c0.683-1.926,1.718-3.896,2.926-5.549  c1.064-1.454,1.786-3.123,2.79-4.648c1.584-2.406,3.589-4.475,5.686-6.436c0.965-0.902,1.541-1.989,2.412-2.989  c0.998-1.146,2.132-2.163,3.207-3.233c1.768-1.76,3.508-3.412,5.741-4.518c1.457-0.722,3.063-1.096,4.715-1.289  C151.338,171.815,153.408,171.848,155.365,171.846z M102.482,214.48c-0.869-1.197-1.34-2.71-2.47-3.662  c-0.967-0.813-5.174-4.762-6.229-5.935c-0.854-0.95-1.22-1.706-2.633-1.886c-1.595-0.203-3.191,0.34-4.723,0.703  c-2.619,0.62-5.154,1.564-7.523,2.843c-3.271,1.765-5.476,5.404-8.014,8.054c-1.502,1.565-3.352,2.739-4.607,4.541  c-1,1.432-1.964,2.862-2.901,4.353c-2.36,3.752-4.864,7.459-7.869,10.729c-1.872,7.631-10.934,25.189-8.087,19.107  c1.161-2.479-1.245,5.686-1.512,8.363c-4.151,13.527,1.904,24.273,5.618,27.516c4.356,3.799,6.809,0.651,10.98-1.365  c8.134-3.936,19.944-0.529,27.451,3.254c3.881,1.957,7.523,4.412,11.301,6.5c1.523,0.842,7.519,2.707,7.834,4.75  c0.535,3.459-5.741,0.477-6.836,0.014c-4.423-1.865-8.38-4.832-12.261-7.588c-3.637-2.583-7.296-4.258-11.744-5  c-3.845-0.643-8.648-0.344-12.169,1.421c-4.443,2.228-4.954,9.063-5.624,13.511c-0.38,2.52,1.31,3.947,3.265,5.297  c2.424,1.672,4.557,3.51,6.193,5.979c0.866,1.307,1.967,2.451,2.815,3.77c0.733,1.137,1.141,2.383,1.675,3.609  c1.194,2.741,2.419,5.41,4.619,7.521c1.471,1.41,3.24,2.537,4.975,3.592c2.058,1.25,3.92,2.707,5.874,4.103  c3.681,2.628,7.502,5.142,11.265,7.655c2.381,1.592,4.376,3.182,7.367,3.348c2.032,0.111,4.09-0.271,5.996-0.967  c1.618-0.592,2.928-1.574,4.739-1.257c2.98,0.522,4.785,3.705,5.612,6.343c0.534,1.703,1.351,3.857,2.803,5.006  c1.197,0.945,2.716,1.127,4.131,1.529c1.817,0.518,3.246,1.322,4.562,2.732c1.13,1.211,2.011,2.888,3.276,3.924  c1.546,1.269,4.168,0.769,6.008,1.209c1.797,0.431,2.727,1.24,3.997,2.506c1.046,1.043,1.813,2.48,3.346,2.88  c1.625,0.423,3.432-0.12,5.065-0.292c1.943-0.205,4.21-0.156,6.068,0.531c1.788,0.662,2.653,1.766,3.991,2.979  c1.492,1.354,3.191,1.203,5.039,0.65c2.073-0.62,2.775-2.037,3.501-3.991c0.566-1.524,0.975-3.261,0.999-4.892  c0.021-1.434-0.24-2.957-0.412-4.379c-0.302-2.496-1.641-4.16-2.902-6.319c-1.359-2.326-2.82-4.591-4.326-6.824  c-2.821-4.187-5.386-8.67-7.738-13.131c-1.145-2.168-2.112-4.373-3.139-6.601c-0.537-1.166-1.374-2.485-1.366-3.811  c0.007-1.337-0.063-2.207-0.528-3.553c-1.417-4.1-3.411-8.073-4.96-12.133c-4.981-13.051-8.463-28.289-6.136-42.278  c1.364-8.178,5.531-16.152,7.469-24.265c0.878-3.675,3.004-10.236,1.003-13.87c-2.841-5.159-10.347-3.959-10.347-11.832  c0-0.951,0.375-3.112,1.53-2.28c0.947,0.683,0.818,2.562,1.213,3.565c0.542,1.379,1.781,2.771,2.871,3.713  c6.868,5.938,9.434-1.48,11.535-7.035c2.681-7.086,6.847-13.354,8.976-20.71c0.64-2.213,1.385-4.581,1.225-6.903  c-0.166-2.416-0.377-5.528-1.369-7.749c-0.499-1.119-1.181-1.885-2.23-2.482c-1.002-0.57-1.726-1.334-2.738-1.871  c-1.924-1.02-3.825-1.775-6.012-1.973c-3.188-0.289-6.099-0.616-9.153,0.373c-2.899,0.939-5.8,2.064-8.18,3.928  c-2.006,1.572-3.147,3.994-4.812,5.912c-1.81,2.086-3.78,4.205-5.836,6.035c-1.908,1.697-2.457,4.574-3.082,6.959  c-1.345,5.126-1.164,10.719,1.525,15.393c1.753,3.048,4.418,3.424,7.621,2.828c0.861-0.158,3.683-1.76,4.183-0.502  c0.448,1.127-2.306,2.774-3.055,3.133c-1.565,0.748-3.364,1.34-5.083,1.541c-2.1,0.246-4.809-0.84-6.207-2.463  c-1.43-1.656-2.021-4.006-3.543-5.674c-1.033-1.133-1.892-1.018-2.606,0.293c-2.006,3.676-1.208,7.945-2.147,11.846  c-1.414,5.869-11.375,23.374-12.37,32.098c-1.193,3.923-2.005,12.399,0.767,16.401c0.334,0.986,1.045,1.92,1.45,2.896  c1.129,2.719,2.754,5.077,3.652,7.946c0.778,2.485,2.498,4.565,3.201,7.08c0.384,1.37,0.837,4.68-1.638,3.34  c-0.98-0.532-1.042-1.604-1.348-2.578c-0.423-1.345-4.006-8.7-5.447-10.963c-1.052-1.649-11.269-17.849-2.421-34.935  c0.797-2.369,1.429-4.803,2.426-7.1c0.948-2.186,1.929-4.234,2.631-6.529c0.901-2.942,2.513-7.737,0.47-10.53  c-0.837-1.145-2.167-2.016-3.322-2.928C106.693,219.354,103.646,216.085,102.482,214.48z M165.292,240.598  c-2.397,2.154-4.674,6.841-5.108,8.473c-3.667,13.776,0.281,29.397,6.621,41.76c1.7,3.314,3.608,6.521,5.68,9.617  c1.915,2.865,3.891,5.92,6.438,8.17c0.555,0.49,0.921,1.127,1.365,1.709c1.049,1.373,2.004,2.848,2.947,4.295  c1.979,3.039,3.87,5.98,5.398,9.277c2.639,5.693,4.918,11.566,7.417,17.322c1.124,2.592,2.326,5.203,3.188,7.896  c0.881,2.756,1.857,5.893,3.653,8.207c3.204,4.129,8.01,8.28,13.036,9.941c2.805,0.927,5.626,0.033,7.854-1.814  c1.011-0.838,1.472-1.75,1.766-2.984c0.12-0.506,0.085-1.271,0.428-1.66c0.94-1.064,1.728,0.023,2.555,0.389  c1.297,0.574,2.333-0.287,3.11-1.344c1.144-1.557,0.91-3.326,0.994-5.148c0.104-2.24,1.219-3.309,2.884-4.601  c2.284-1.772,3.78-6.343,2.668-9.081c-1.091-2.688-4.837-3.889-4.19-7.318c0.4-2.125,4.229-6.479,2.132-8.582  c-0.81-0.811-2.501-1.391-3.459-2.05c-1.503-1.032-2.272-2.239-2.38-4.091c-0.133-2.298,0.699-4.511,2.217-6.238  c1.183-1.346,2.663-2.207,3.384-3.936c0.988-2.373,0.273-5.043-1.218-6.965c-1.016-1.309-1.477-3.27-1.934-4.895  c-0.606-2.156-0.176-4.656,0.002-6.846c0.231-2.83-0.354-5.484-0.688-8.268c-0.318-2.65,0.186-5.047-0.811-7.617  c-0.804-2.074-2.798-3.295-3.957-5.121c-1.956-3.081-1.966-7-2.174-10.532c-0.168-2.854,0.577-8.937-3.348-9.767  c-2.899-0.611-6.318,2.133-7.753,4.428c-1.157,1.852-1.972,4.164-2.626,6.244c-0.45,1.434-0.681,2.896-0.836,4.385  c-0.189,1.807,0.109,3.367-0.004,5.118c-0.081,1.256,0.62,5.901-1.147,5.911c-1.969,0.012-2.149-3.194-2.401-4.569  c-0.41-2.235-0.456-4.532-0.259-6.794c0.207-2.377,0.672-4.734,1.394-7.01c0.564-1.775,0.971-3.543,2.271-4.893  c2.841-2.951,6.03-5.521,9.615-7.517c3.152-1.753,4.183-4.282,5.216-7.505c0.411-1.281,0.714-2.385,0.874-3.723  c0.282-2.349,0.433-4.469-0.188-6.78c-0.527-1.967-1.993-3.375-3.198-4.938c-1.336-1.733-1.512-3.666-2.558-5.511  c-2.37-4.176-7.61-10.717-11.678-13.344c-1.711-1.104-3.713-1.277-4.971-2.832c-1.06-1.311-2.551-2.068-4.197-2.357  c-3.17-0.557-6.95,0.436-9.332,2.635c-1.289,1.189-2.1,2.584-2.878,4.134c-0.615,1.226-1.529,2.429-1.978,3.726  c-0.979,2.829-0.592,7.065,0.78,9.75c1.716,3.356,3.052,6.739,3.109,10.619c0.068,4.621,0.338,8.553,2.028,12.898  c0.846,2.176,1.835,4.104,2.227,6.42c0.421,2.486,0.524,5.014,0.712,7.524c0.227,3.054,0.521,6.235,0.064,9.281  c-0.214,1.424-0.612,3.305-1.425,4.504c-1.383,2.041-1.826-0.149-1.731-1.496c0.438-6.194-0.198-11.992-1.03-18.116  c-0.198-1.453-0.543-2.761-0.97-4.162c-1.38-4.529-3.258-10.479-8.819-6.254c-1.563,1.187-2.952,5.173-4.01,0.887  c-0.478-1.938,1.384-4.035,2.398-5.524c2.359-3.46,5.171-5.962,4.999-10.448c-0.105-2.727-6.801-19.239-10.078-17.395  c-1.271,0.715-1.635,3.48-2.391,4.618c-0.942,1.417-1.74,2.915-2.606,4.39c-1.933,3.293-3.551,6.564-4.945,10.179  c-0.417,1.081-2.443,11.689-2.28,11.616c3.66-1.632,12.376-0.736,10.837,5.489c-0.649,0.106-1.192,0.13-1.837-0.012  C168.954,238.788,167.089,238.98,165.292,240.598z"
     stroke="#FFFFFF"
     fill="#E4BC96" /><g
     id="g82"
     enable-background="new    ">
	<path
   id="path84"
   d="M389.599,29.579h-3.641v-2.561h10.36v2.561h-3.681v10.92h-3.039V29.579z" />
	<path
   id="path86"
   d="M398.599,36.559c0.1,1.28,1.34,1.881,2.76,1.881c1.039,0,1.88-0.141,2.699-0.421l0.4,2.061c-1,0.42-2.22,0.62-3.54,0.62   c-3.319,0-5.22-1.92-5.22-5c0-2.48,1.561-5.22,4.939-5.22c3.16,0,4.36,2.46,4.36,4.88c0,0.52-0.06,0.979-0.101,1.22L398.599,36.559   z M402.179,34.479c0-0.721-0.32-1.98-1.701-1.98c-1.299,0-1.819,1.18-1.899,1.98H402.179z" />
	<path
   id="path88"
   d="M410.218,28.059v2.66h2.18v2.24h-2.18v3.56c0,1.181,0.301,1.721,1.2,1.721c0.42,0,0.62-0.021,0.9-0.08l0.02,2.3   c-0.38,0.14-1.12,0.26-1.96,0.26c-0.98,0-1.8-0.34-2.3-0.84c-0.56-0.58-0.84-1.52-0.84-2.899v-4.021h-1.3v-2.24h1.3v-1.84   L410.218,28.059z" />
	<path
   id="path90"
   d="M414.178,33.939c0-1.44-0.02-2.381-0.079-3.221h2.6l0.119,1.82h0.08c0.5-1.44,1.681-2.04,2.641-2.04   c0.279,0,0.42,0.02,0.64,0.06v2.86c-0.26-0.04-0.5-0.08-0.84-0.08c-1.12,0-1.88,0.58-2.08,1.54c-0.04,0.2-0.06,0.42-0.06,0.68v4.94   h-3.04L414.178,33.939z" />
	<path
   id="path92"
   d="M429.678,38.139c0,0.92,0.04,1.82,0.16,2.36h-2.74l-0.18-0.98h-0.06c-0.641,0.78-1.641,1.2-2.801,1.2   c-1.98,0-3.16-1.439-3.16-3c0-2.54,2.28-3.739,5.74-3.739v-0.12c0-0.521-0.279-1.261-1.779-1.261c-1,0-2.061,0.341-2.701,0.721   l-0.56-1.94c0.681-0.38,2.021-0.88,3.8-0.88c3.26,0,4.28,1.92,4.28,4.22V38.139z M426.738,35.879c-1.6,0-2.84,0.38-2.84,1.54   c0,0.78,0.521,1.16,1.2,1.16c0.74,0,1.38-0.5,1.58-1.12c0.04-0.16,0.06-0.34,0.06-0.52V35.879z" />
	<path
   id="path94"
   d="M432.099,26.299h3.039v14.2h-3.039V26.299z" />
	<path
   id="path96"
   d="M442.078,40.719c-2.859,0-5.06-1.88-5.06-5.04s2.08-5.18,5.239-5.18c2.98,0,4.98,2.06,4.98,5.02c0,3.561-2.54,5.2-5.14,5.2   H442.078z M442.138,38.539c1.199,0,1.939-1.18,1.939-2.94c0-1.439-0.56-2.92-1.939-2.92c-1.44,0-2,1.48-2,2.94   c0,1.66,0.699,2.92,1.979,2.92H442.138z" />
	<path
   id="path98"
   d="M458.438,39.079c0,1.88-0.38,3.42-1.5,4.4c-1.06,0.92-2.521,1.199-3.96,1.199c-1.3,0-2.641-0.26-3.52-0.739l0.6-2.32   c0.62,0.36,1.68,0.74,2.84,0.74c1.439,0,2.54-0.761,2.54-2.58v-0.62h-0.04c-0.58,0.8-1.52,1.26-2.641,1.26   c-2.42,0-4.139-1.96-4.139-4.76c0-3.16,2.02-5.16,4.439-5.16c1.34,0,2.18,0.58,2.68,1.38h0.04l0.101-1.16h2.64   c-0.04,0.641-0.08,1.46-0.08,2.92V39.079z M455.398,34.699c0-0.181-0.02-0.38-0.061-0.561c-0.219-0.8-0.799-1.34-1.64-1.34   c-1.12,0-2,1-2,2.78c0,1.46,0.72,2.6,1.98,2.6c0.8,0,1.42-0.52,1.62-1.22c0.08-0.24,0.1-0.56,0.1-0.82V34.699z" />
	<path
   id="path100"
   d="M463.138,30.719l1.459,4.8c0.16,0.58,0.36,1.301,0.48,1.82h0.061c0.14-0.52,0.299-1.26,0.439-1.82l1.2-4.8h3.26l-2.28,6.44   c-1.399,3.88-2.34,5.42-3.439,6.399c-1.04,0.921-2.16,1.261-2.94,1.341l-0.64-2.561c0.38-0.08,0.859-0.26,1.32-0.52   c0.459-0.24,0.979-0.74,1.26-1.221c0.1-0.159,0.16-0.3,0.16-0.439c0-0.101-0.021-0.26-0.12-0.5l-3.601-8.94H463.138z" />
	<path
   id="path102"
   d="M479.858,40.719c-2.86,0-5.06-1.88-5.06-5.04s2.079-5.18,5.239-5.18c2.979,0,4.979,2.06,4.979,5.02   c0,3.561-2.539,5.2-5.14,5.2H479.858z M479.917,38.539c1.2,0,1.94-1.18,1.94-2.94c0-1.439-0.56-2.92-1.94-2.92   c-1.439,0-2,1.48-2,2.94c0,1.66,0.7,2.92,1.98,2.92H479.917z" />
	<path
   id="path104"
   d="M487.257,40.499v-7.54h-1.3v-2.24h1.3v-0.38c0-1.18,0.36-2.479,1.221-3.28c0.779-0.72,1.82-0.979,2.72-0.979   c0.66,0,1.181,0.1,1.601,0.2l-0.121,2.34c-0.26-0.08-0.58-0.14-0.979-0.14c-1,0-1.42,0.779-1.42,1.739v0.5h1.96v2.24h-1.939v7.54   H487.257z" />
	<path
   id="path106"
   d="M497.877,27.019h8.22v2.5h-5.18v3.08h4.84v2.48h-4.84v5.42h-3.04V27.019z" />
	<path
   id="path108"
   d="M515.658,38.139c0,0.92,0.04,1.82,0.16,2.36h-2.74l-0.18-0.98h-0.061c-0.64,0.78-1.64,1.2-2.8,1.2   c-1.979,0-3.159-1.439-3.159-3c0-2.54,2.279-3.739,5.739-3.739v-0.12c0-0.521-0.28-1.261-1.78-1.261c-1,0-2.06,0.341-2.699,0.721   l-0.561-1.94c0.68-0.38,2.02-0.88,3.801-0.88c3.26,0,4.279,1.92,4.279,4.22V38.139z M512.718,35.879c-1.601,0-2.84,0.38-2.84,1.54   c0,0.78,0.52,1.16,1.199,1.16c0.74,0,1.381-0.5,1.58-1.12c0.04-0.16,0.061-0.34,0.061-0.52V35.879z" />
	<path
   id="path110"
   d="M518.078,26.299h3.04v14.2h-3.04V26.299z" />
	<path
   id="path112"
   d="M523.558,26.299h3.039v14.2h-3.039V26.299z" />
	<path
   id="path114"
   d="M533.538,40.719c-2.86,0-5.06-1.88-5.06-5.04s2.079-5.18,5.239-5.18c2.979,0,4.979,2.06,4.979,5.02   c0,3.561-2.539,5.2-5.14,5.2H533.538z M533.597,38.539c1.2,0,1.94-1.18,1.94-2.94c0-1.439-0.56-2.92-1.94-2.92   c-1.439,0-2,1.48-2,2.94c0,1.66,0.7,2.92,1.98,2.92H533.597z" />
	<path
   id="path116"
   d="M543.978,28.059v2.66h2.18v2.24h-2.18v3.56c0,1.181,0.299,1.721,1.199,1.721c0.42,0,0.62-0.021,0.9-0.08l0.02,2.3   c-0.38,0.14-1.119,0.26-1.96,0.26c-0.979,0-1.8-0.34-2.3-0.84c-0.561-0.58-0.84-1.52-0.84-2.899v-4.021h-1.301v-2.24h1.301v-1.84   L543.978,28.059z" />
</g><g
     id="g118"
     enable-background="new    ">
	<path
   id="path120"
   d="M105.7,40.074v-13.48h1.92l4.3,6.82c0.98,1.58,1.78,2.98,2.4,4.38l0.06-0.02c-0.16-1.8-0.2-3.44-0.2-5.521v-5.66h1.64   v13.48h-1.76l-4.28-6.84c-0.94-1.5-1.84-3.04-2.5-4.5l-0.06,0.02c0.1,1.7,0.12,3.32,0.12,5.561v5.76H105.7z" />
	<path
   id="path122"
   d="M122.719,40.294c-2.6,0-4.64-1.92-4.64-4.979c0-3.24,2.14-5.141,4.8-5.141c2.78,0,4.66,2.021,4.66,4.96   c0,3.601-2.5,5.16-4.8,5.16H122.719z M122.779,38.975c1.68,0,2.94-1.58,2.94-3.78c0-1.64-0.82-3.7-2.9-3.7   c-2.06,0-2.96,1.92-2.96,3.76c0,2.12,1.2,3.721,2.9,3.721H122.779z" />
	<path
   id="path124"
   d="M129.779,33.414c0-1.14-0.02-2.12-0.08-3.02h1.54l0.08,1.899h0.06c0.44-1.3,1.52-2.12,2.7-2.12   c0.18,0,0.32,0.021,0.48,0.061v1.64c-0.2-0.02-0.38-0.04-0.62-0.04c-1.24,0-2.12,0.94-2.36,2.24c-0.04,0.26-0.06,0.54-0.06,0.84   v5.16h-1.76L129.779,33.414z" />
	<path
   id="path126"
   d="M136.379,33.015c0-1.021-0.04-1.82-0.08-2.62h1.54l0.08,1.56h0.06c0.54-0.92,1.44-1.78,3.06-1.78   c1.3,0,2.3,0.801,2.72,1.94h0.04c0.3-0.56,0.7-0.96,1.1-1.26c0.58-0.44,1.2-0.681,2.12-0.681c1.3,0,3.2,0.841,3.2,4.2v5.7h-1.72   v-5.48c0-1.88-0.7-2.979-2.1-2.979c-1.02,0-1.78,0.74-2.1,1.58c-0.08,0.26-0.14,0.58-0.14,0.88v6h-1.72v-5.8   c0-1.561-0.68-2.66-2.02-2.66c-1.08,0-1.9,0.88-2.18,1.76c-0.1,0.26-0.14,0.561-0.14,0.86v5.84h-1.72V33.015z" />
	<path
   id="path128"
   d="M159.879,37.754c0,0.84,0.04,1.66,0.14,2.32h-1.58l-0.16-1.22h-0.06c-0.52,0.76-1.58,1.439-2.96,1.439   c-1.96,0-2.96-1.38-2.96-2.779c0-2.341,2.08-3.62,5.82-3.601v-0.2c0-0.8-0.22-2.26-2.2-2.239c-0.92,0-1.86,0.26-2.54,0.72   l-0.4-1.18c0.8-0.5,1.98-0.841,3.2-0.841c2.98,0,3.7,2.021,3.7,3.96V37.754z M158.16,35.134c-1.92-0.04-4.1,0.301-4.1,2.181   c0,1.16,0.76,1.68,1.64,1.68c1.28,0,2.1-0.8,2.38-1.62c0.06-0.18,0.08-0.38,0.08-0.56V35.134z" />
	<path
   id="path130"
   d="M162.7,25.874h1.76v14.2h-1.76V25.874z" />
	<path
   id="path132"
   d="M171.619,25.874h1.76v6.04h0.04c0.28-0.5,0.72-0.96,1.26-1.24c0.52-0.319,1.14-0.5,1.8-0.5c1.3,0,3.38,0.801,3.38,4.141   v5.76h-1.76v-5.56c0-1.58-0.58-2.881-2.24-2.881c-1.14,0-2.02,0.801-2.36,1.761c-0.1,0.239-0.12,0.5-0.12,0.84v5.84h-1.76V25.874z" />
	<path
   id="path134"
   d="M183.719,35.534c0.04,2.38,1.54,3.36,3.3,3.36c1.26,0,2.04-0.221,2.68-0.48l0.32,1.24c-0.62,0.28-1.7,0.62-3.24,0.62   c-2.96,0-4.76-1.98-4.76-4.88c0-2.94,1.74-5.24,4.56-5.24c3.16,0,3.98,2.78,3.98,4.56c0,0.36-0.02,0.641-0.06,0.841L183.719,35.534   z M188.859,34.274c0.02-1.101-0.46-2.86-2.42-2.86c-1.8,0-2.56,1.641-2.7,2.86H188.859z" />
	<path
   id="path136"
   d="M199.559,37.754c0,0.84,0.04,1.66,0.14,2.32h-1.58l-0.16-1.22h-0.06c-0.52,0.76-1.58,1.439-2.96,1.439   c-1.96,0-2.96-1.38-2.96-2.779c0-2.341,2.08-3.62,5.82-3.601v-0.2c0-0.8-0.22-2.26-2.2-2.239c-0.92,0-1.86,0.26-2.54,0.72   l-0.4-1.18c0.8-0.5,1.98-0.841,3.2-0.841c2.98,0,3.7,2.021,3.7,3.96V37.754z M197.839,35.134c-1.92-0.04-4.1,0.301-4.1,2.181   c0,1.16,0.76,1.68,1.64,1.68c1.28,0,2.1-0.8,2.38-1.62c0.06-0.18,0.08-0.38,0.08-0.56V35.134z" />
	<path
   id="path138"
   d="M202.399,33.414c0-1.14-0.02-2.12-0.08-3.02h1.54l0.08,1.899H204c0.44-1.3,1.52-2.12,2.7-2.12   c0.18,0,0.32,0.021,0.48,0.061v1.64c-0.2-0.02-0.38-0.04-0.62-0.04c-1.24,0-2.12,0.94-2.36,2.24c-0.04,0.26-0.06,0.54-0.06,0.84   v5.16h-1.76L202.399,33.414z" />
	<path
   id="path140"
   d="M211.52,28.074v2.32h2.52v1.34h-2.52v5.22c0,1.2,0.34,1.88,1.32,1.88c0.48,0,0.76-0.04,1.02-0.12l0.08,1.341   c-0.34,0.119-0.88,0.239-1.56,0.239c-0.82,0-1.48-0.279-1.9-0.739c-0.48-0.54-0.68-1.4-0.68-2.54v-5.28h-1.5v-1.34h1.5v-1.78   L211.52,28.074z" />
</g><path
     id="path142"
     d="M394.207,213.097c0.075-3.645-4.289-5.366-7.154-6.231  c-4.172-1.261-7.627,0.578-11.851,0.039c-2.933-0.373-5.786-1.373-8.509-2.491c-4.189-1.722-6.146-0.289-8.444,3.713  c-2.696,4.698,3.425,8.215,7.255,9.778c2.422,0.989,4.379,1.447,7.002,1.445c1.471,0,2.998,0.144,4.443-0.171  c1.438-0.311,2.771-1.393,4.245-1.297c-2.347,2.857-5.892,2.445-9.165,3.197c-3.35,0.771-6.674,1.69-9.889,2.91  c-3.149,1.195-5.785,3.143-8.867,4.416c-1.127,0.465-2.834,0.825-3.611,1.887c-0.979,1.34-0.679,4.021-0.477,5.564  c0.271,2.074,1.193,5.26,3.568,5.803c0.992,0.229,1.006,0.111,1.937-0.32c2.567-1.188,4.604-3.584,7.37-4.289  c2.609-0.666,5.537-1.291,8.217-1.725c3.807-0.613,9.096,1.236,11.717-1.998c2.59-3.197,5.211-7.172,7.333-10.732  C390.802,220.118,394.146,216.138,394.207,213.097z"
     stroke="#8F0000"
     fill="#BF0000" /><path
     id="path144"
     d="M427.003,126.85c-5.104-2.643-15.793-5.333-21.123-3.123  c-4.832,2.006-7.043,9.273-5.351,14.096c1.256,3.578,2.438,2.674,6.448,3.002c2.412,0.197,7.609,2.928,9.648,2.426  c3.396-0.834,9.271-12.155,9.877-15.9"
     stroke="#003CFF"
     fill="#0060B6" /><path
     id="path151"
     d="M486.376,383.357c5.376-1.213,10.656-3.886,13.122-9.062  c5.474-11.49-1.646-22.998-8.958-31.688c-7.553-8.976-9.149-21.247-11.745-32.292c-1.993-8.479-6.23-16.511-8.034-24.936  c-1.777-8.3,1.286-16.28,1.197-24.531c-0.039-3.629-0.438-7.321-0.385-11.012c0.088-6.132,2.587-11.669,1.888-17.727  c-0.651-5.648,2.548-8.638,4.556-14.263c1.432-4.01,3.834-7.491,5.375-11.5c3.021-7.861,3.814-17.018-0.764-24.123  c-5.492-8.518-20.365-6.236-28.039-1.852c-13.191,7.539-16.931,20.424-21.709,33.561c-5.902,16.22-10.498,33.094-15.391,49.414  c-3.086,10.291,4.886,17.689,7.932,26.674c2.793,8.238-3.65,14.17-11.381,11.326c-5.292-1.945-7.074-5.993-11.648-8.375  c-4.318-2.247-12.231-3.434-17.049-3.551c-4.662-0.115-9.416,3.254-10.738,7.901c-1.567,5.509-0.735,13.091,0.787,18.511  c1.451,5.166,3.729,9.223,7.054,13.608c8.354,11.021,17.063,23.287,28.458,31.401c7.559,5.386,16.553,5.328,24.997,8.091  c4.743,1.551,9.312,4.428,13.942,6.392c4.67,1.979,8.158,5.118,12.69,6.975c3.776,1.547,6.206,3.213,10.455,3.092  C477.362,385.271,482.132,384.316,486.376,383.357z"
     stroke="#003CFF"
     fill="url(#XMLID_29_)" /><path
     id="path158"
     d="M452.921,184.46c-0.115,0.119-0.229,0.236-0.343,0.357  c-4.409,4.666-11.571,8.621-12.696,15.535c-0.875,5.375-2.24,16.574,3.733,19.898c3.993,2.221,7.569-1.588,10.862-0.9  c5.384,1.123,3.984,8.438,10.054,8.996c12.743,1.173,14.375-20.236,17.834-28.207c1.949-4.491,4.427-10.707,2.013-15.705  c-2.283-4.723-9.433-6.932-14.273-7.086C463.05,177.124,457.546,179.718,452.921,184.46z"
     stroke-width="0.5"
     stroke="#0060B6"
     fill="url(#XMLID_30_)" /><path
     id="path165"
     d="M359.505,253.886c-0.84,5.064-0.977,11.787-3.929,16.109  c-2.43,3.561-4.88,4.689-4.862,9.648c0.032,8.576,5.92,16.205,9.289,23.717c3.07,6.844,1.233,15.979,1.512,23.48  c0.709,19.145-0.527,38.406-0.512,57.565c0.002,2.746-0.381,5.212,0.84,7.543c2.182,4.166,10.002,7.281,14.237,8.046  c9.714,1.75,24.32-0.076,24.046-12.248c-0.099-4.386-1.607-8.972-2.012-13.373c-0.654-7.133-0.064-13.783,0.277-20.889  c0.477-9.906-1.484-12.382-7.791-19.582c-2.791-3.188-4.596-6.216-7.981-8.688c-3.487-2.549-6.707-4.867-9.226-8.519  c-5.364-7.772-4.059-16.169,3.134-22.272c12.213-10.364,28.521,3.762,39.448,9.062c2.236,1.084,4.684,2.089,7.025,0.737  c2.912-1.682,1.146-3.297,2.627-5.799c1.215,0.525,1.082-0.219,2.286-0.162c0.956-3.78-4.508-8.432-6.063-11.789  c-2.321-5.012-4.283-11.145-5.373-16.613c-3.358-16.855,17.928-34.744,4.135-50.514c-4.622-5.283-5.991-8.526-7.098-15  c-1.108-6.486-3.221-12.91-3.987-19.473c-0.593-5.068-0.899-10.47-0.552-15.646c0.188-2.805,1-5.703,1.662-8.49  c0.565-2.379,2.406-6.168,2.484-8.389c0.313-8.792-24.003-5.572-28.645-0.023c-2.079,2.484-1.283,4.197-0.963,6.988  c0.644,5.621,0.22,10.629-0.89,16.186c-2.172,10.892-3.903,21.396-7.511,31.864C369.867,222.603,362.149,237.954,359.505,253.886z"
     stroke="#003CFF"
     fill="url(#XMLID_31_)" /><path
     id="path172"
     d="M395.497,224.929c6.81-1.477,11.983,0.957,18.443,2.23c0.196,0.039-3.882-8.939-4.591-9.805  c-2.342-2.848-5.776-5.747-9.19-6.031c-5.017-0.418-18.754,8.777-17.579,16.432C387.14,228.415,391.175,225.864,395.497,224.929z"
     fill="url(#XMLID_32_)" /><path
     id="path179"
     d="M376.091,275.663c-1.785-1.631-3.467-3.568-5.232-4.742c-4.284-2.848-10.251-2.303-11.006,3.414  c-0.579,4.392,2.265,9.519,4.781,12.908c2.518,3.393,4.455,2.568,7.894,1.105c2.558-1.088,4.69-1.977,7.478-2.637  c2.276-0.539,7.17-0.25,8.998-1.438c9.045-5.886-7.066-5.362-8.996-6.022C378.611,277.773,377.326,276.792,376.091,275.663z"
     fill="url(#XMLID_33_)" /><path
     id="path186"
     d="M464.906,238.794c-1.207-2.125,0.772-3.76,1.745-5.304  c1.218-1.934,0.891-2.192,0.975-4.797c0.074-2.288,1.36-4.521,2.52-6.417c4.329-7.078,11.408-10.088,15.407-16.965  c4.59-7.895,9.875-13.496,13.091-22.351c1.914-5.275,4.849-8.828,9.35-12.25c2.245-1.707,9.78-7.974,10.936-3.758  c1.465,5.352-4.687,12.067-6.381,16.92c-2.236,6.401,3.248,8.719,8.383,11.104c-0.498,0.587-0.574,1.311-1.25,1.896  c1.1-0.953,7.146-2.484,8.877-3.113c3.297-1.198,5.941-0.885,8.949,1.092c2.586,1.699,7.188,6.854,6.266,10.295  c-0.983,3.662-17.602,9.916-8.643,15.605c3.808,2.416,7.377-1.643,10.887-2.525c4.207-1.059,6.502,1.49,7.875,5.998  c1.697,5.564,0.41,6.094-3.768,8.225c-5,2.553-12.632,6.719-11.798,13.285c0.742,5.846,6.69,12.111,9.312,17.307  c6.692,13.283,10.871,27.727,13.736,42.283c2.567,13.044,3.184,25.379,1.541,38.613c-1.574,12.688-6.816,27.182-18.523,33.885  c-8.393,4.805-19.252,6.818-27.272,0.462c-12.773-10.123-17.16-25.666-23.563-39.891c-6.06-13.461-18.431-24.647-22.468-38.857  c-1.637-5.764-2.604-11.703-2.978-17.682c-0.16-2.553,0.133-4.187-0.307-6.688c-0.408-2.33-0.763,2.078-1.078-0.249"
     stroke="#8F0000"
     fill="url(#XMLID_34_)" /><path
     id="path193"
     d="M465.895,258.453"
     stroke="#8F0000"
     fill="url(#XMLID_35_)" /><path
     id="path200"
     d="M514.809,213.661c2.982,1.941,3.957,4.694,5.816,7.496c0.057,0.086,1.852-4.621,1.909-5.188  c0.192-1.875,0.011-4.162-1.112-5.504c-1.649-1.971-9.925-3.653-12.279-0.479C510.541,211.88,512.916,212.429,514.809,213.661z"
     fill="url(#XMLID_36_)" /><path
     id="path207"
     d="M527.182,231.405c1.947,2.979,1.729,5.891,2.303,9.205c0.018,0.1,3.557-3.482,3.839-3.979  c0.933-1.639,1.688-3.805,1.2-5.486c-0.717-2.469-7.609-7.344-11.047-5.387C523.994,228.056,525.948,229.515,527.182,231.405z"
     fill="url(#XMLID_37_)" /><path
     id="path214"
     d="M451.978,179.347c-7.493,9.972-16.725,19.689-18.355,32.502  c-0.595,4.681-0.787,10.195-6.795,8.189c-3.605-1.203-8.033-5.301-10.38-8.262c-4.415-5.572-7.188-12.322-8.976-19.154  c-3.418-13.066-3.754-27.615-0.604-40.775c4.5-18.801,13.985-38.014,28.14-51.498c4.491-4.279,8.285-6.619,7.605-13.361  c-0.564-5.599-3.602-10.568-6.941-15.017c2.539-2.903,7.633-6.599,11.379-7.668c4.025-1.149,2.698-0.601,4.043,2.841  c3.907,9.994,8.123,18.097,17.396,24.03c-1.822-1.363-3.152-3.13-4.333-4.871c7.074,0.492,12.903-3.414,17.235-8.564  c1.734-2.062,4.146-4.567,5.511-6.888c0.836-1.423,0.957-3.482,2.066-4.623c2.256-2.322,12.58-2.78,12.859,1.611  c0.118,1.861-5.988,6.884-6.76,9.174c-1.65,4.903-0.571,11.515-0.563,16.653c-0.461-6.37,1.387-16.011,6.137-20.437  c6.699-6.243,10.428,1.394,15.731,6.055c-2.815-2.476-6.478,4.577-7.019,6.12c-3.145,8.979,2.34,13.573,5.807,20.967  c6.571,14.018,7.98,32.439,4.809,47.45c0.436-2.056-8.233,0.153-9,0.245c-3.418,0.411-7.66-0.656-10.938-1.617  c-4.035-1.184-9.165-1.935-12.662-4.279c-3.185-2.135-4.914-5.803-8.071-8.008c-10.049-7.02-18.506,2.441-21.822,11.674  c-1.85,5.156-0.697,10.219,0.65,15c0.826,2.928,1.402,2.44-0.25,5.416C456.478,174.771,453.757,176.982,451.978,179.347z"
     stroke="#8F0000"
     fill="url(#XMLID_38_)" /><g
     id="g216">
	<path
   id="path218"
   d="M457.789,153.056c0.52-1.881,1.322-3.756,2.377-5.746c0.949-1.793,2.074-3.466,3.51-4.908   c1.282-1.289,2.963-3.055,4.828-3.391c2.166-0.389,5.389,0.916,7.44,1.608c4.517,1.522,8.741,4.335,13.671,4.22   c4.383-0.102,8.694,1.164,13,1.871c5.981,0.982,12.28,0.896,18.351,0.527c4.176-0.254,8.285-1.167,12.473-1.32   c2.013-0.074,4.066-0.014,6.027,0.488c1.672,0.428,3.231,2.215,4.319,3.587c4.451,5.618,3.333,14.735-2.782,18.87   c-2.877,1.943-5.371,1.207-8.674,1.449c-5.156,0.378-11.18,1.371-16.214,2.637c-8.937,2.246-14.271,6.904-18.126,14.775   c-2.885,5.891-7.34,12.011-11.884,16.623c-0.828-9.309,2.26-22.422-9.215-26.358c-4.717-1.618-10.066-0.64-14.824,0.28   c-4.448,0.857-9.385,1.818-12.83,4.992c0.322-3.771,4.699-7.826,6.822-10.898c2.281-3.299,2.717-4.779,1.84-8.662   C457.089,160.112,456.798,156.651,457.789,153.056z"
   fill="#0060B6" />
	<path
   id="path220"
   d="M486.171,204.849c0.744-2.903,4.322-5.48,6.007-7.873c2.252-3.197,4.174-6.292,5.951-9.792   c3.34-6.57,8.395-10.563,15.209-13.037c1.937-0.703,3.61-1.752,5.625-2.306c2.045-0.563,4.115-0.879,6.207-1.112   c3.608-0.401,7.225-0.651,10.838-0.915c1.604-0.116,2.494,0.167,3.836-0.717c1.201-0.791,2.444-1.57,3.289-2.768   c1.791-2.539,3.983-5.877,3.567-9.119c-0.315-2.467-1.312-4.549-2.519-6.68c-0.76-1.344-1.264-2.67-2.67-3.519   c-2.64-1.595-6.235-1.231-9.164-0.954c-4.219,0.399-8.453,0.787-12.684,0.967c-2.363,0.101-4.744,0.193-7.111,0.163   c-2.582-0.033-5.334,0.278-7.896-0.122c-3.138-0.49-6.242-1.139-9.358-1.717c-1.754-0.324-3.529-0.492-5.302-0.707   c-1.649-0.2-3.224-0.818-4.863-0.967c-2.9-0.262-4.867-1.505-7.59-2.284c-1.41-0.403-2.871-0.63-4.234-1.166   c-1.508-0.592-2.568-0.86-4.307-0.876"
   stroke="#003CFF"
   fill="none" />
	<path
   id="path222"
   d="M449.253,182.849c0.823-1.27,1.038-2.463,1.988-3.676c1.504-1.92,2.506-4.129,3.949-6.086   c1.385-1.877,3.619-4.19,3.313-6.738"
   stroke="#003CFF"
   fill="none" />
</g><path
     id="path224"
     d="M467.833,174.968c4.223,0,8.584,0.891,12.279,2.996c2.299,1.311,3.926,3.524,5.2,5.789  c2.146,3.805,3.056,8.617,3.05,12.944c-0.002,1.833,0.141,3.675-0.054,5.503c-0.073,0.688-0.448,1.588-0.229,2.262  c0.219,0.67,1.152,1.263,1.615,1.754c1.08,1.148,2.151,2.816,3.547,3.58c-1.502-0.822,1.311-6.485,1.824-7.465  c1.178-2.252,3.846-4.508,6.092-5.603c3.356-1.636,7.229-1.708,10.795-1.041c2.285,0.428,4.072,1.411,6.158,2.381  c1.797,0.835,3.112,2.379,4.713,3.479c2.676,1.845,4.617,5.189,6.703,7.652c2.604,3.074,5.811,5.918,7.625,9.577  c0.875,1.767,2.164,3.194,3.186,4.908c1.064,1.782,1.926,3.694,2.551,5.675c0.75,2.381,0.58,5.155,0.342,7.618  c-0.223,2.303-0.528,4.634,0.156,6.894c0.295,0.979,0.707,2.016,1.375,2.803c0.726,0.854,1.574,0.916,2.484,1.384  c7.307,3.741,9.457,10.896,14.234,16.836c2.325,2.894,4.077,6.097,5.25,9.625c2.823,8.513,4.811,17.331,5.819,26.247  c0.99,8.718,0.248,17.182,0.181,25.908c-0.05,6.361,0.227,12.688,0.012,19.029c-0.217,6.492-0.75,13.129-1.951,19.521  c-1.342,7.146-4.67,13.002-8.324,19.192c-2.535,4.297-5.764,9.103-10.299,11.5c-13.711,7.248-29.825,7.454-44.98,8.62  c-16.742,1.288-33.644,1.483-50.218-1.568c-11.265-2.074-23.34-5.868-33.849-10.508c-7.271-3.21-15.728-6.115-22.074-10.975  c-11.135-8.524-21.825-19.96-27.389-33.037c-2.538-5.967-4.792-11.837-6.198-18.187c-0.979-4.423-2.024-8.684-2.287-13.24  c-0.243-4.206,3.271-17.943-2.583-20.139c-11.108-4.166-11.955-18.922-12.006-20.119c-0.479-6.422,2.164-17.465,4.012-20.975  c0.271-0.517,0.812-1.027,0.998-1.566c4.013-10.631,8.529-15.025,9.797-18.287c1.841-6.219,10.055-14.68,11.313-16.467  c0.804-1.139,1.679-2.041,2.537-3.127c1.799-2.279,3.699-4.811,5.668-6.906c2.326-2.475,4.631-5.152,7.698-6.719  c2.757-1.408,6.141-2.203,9.282-1.85c2.804,0.316,5.67,1.641,7.744,3.5c2.78,2.492,4.79,5.691,7.342,8.396  c1.104,1.172,2.346,2.142,3.373,3.346c1,1.17,2.455,1.635,3.596,2.616c0.866,0.748,1.329,1.338,2.509,1.338  c3.229-0.001,4.229-3.63,4.815-6.181c0.345-1.485,0.56-3.008,1.132-4.405c0.748-1.833,1.268-3.776,1.93-5.646  c0.682-1.926,1.719-3.896,2.926-5.549c1.064-1.455,1.787-3.123,2.789-4.648c1.584-2.405,3.59-4.475,5.688-6.436  c0.965-0.902,1.541-1.99,2.411-2.99c0.996-1.146,2.132-2.162,3.207-3.232c1.769-1.76,3.509-3.413,5.74-4.52  c1.457-0.721,3.063-1.095,4.715-1.287C463.808,174.938,465.876,174.97,467.833,174.968z M478.62,298.412  c0.009,0.041,0.019,0.082,0.027,0.123c0.925,4.085,3.567,7.689,4.607,11.667c0.443,1.696,0.066,3.473,0.553,5.176  c0.543,1.9,2.003,3.366,3.113,4.941c3.011,4.27,6.133,9.151,8.11,13.951c2.124,5.154,5.599,9.575,8.446,14.369  c3.374,5.68,9.224,8.133,13.346,13.083c3.17,3.807,6.721,7.063,11.572,8.667c2.805,0.927,5.625,0.033,7.854-1.814  c1.012-0.838,1.473-1.75,1.766-2.984c0.121-0.506,0.086-1.271,0.429-1.66c0.94-1.064,1.729,0.023,2.555,0.389  c1.297,0.574,2.334-0.287,3.111-1.344c1.143-1.557,0.909-3.326,0.993-5.148c0.104-2.24,1.22-3.309,2.884-4.601  c2.284-1.772,3.78-6.343,2.668-9.081c-1.09-2.688-4.836-3.889-4.189-7.318c0.4-2.125,4.229-6.479,2.131-8.582  c-0.809-0.811-2.5-1.391-3.459-2.05c-1.502-1.032-2.271-2.239-2.379-4.092c-0.133-2.297,0.699-4.511,2.217-6.237  c1.183-1.347,2.662-2.205,3.384-3.936c0.987-2.374,0.272-5.042-1.218-6.965c-1.016-1.309-1.477-3.271-1.934-4.896  c-0.607-2.153-0.176-4.655,0.002-6.844c0.229-2.831-0.354-5.483-0.689-8.271c-0.317-2.647,0.187-5.045-0.811-7.617  c-0.803-2.072-2.797-3.293-3.957-5.119c-1.955-3.081-1.965-7-2.174-10.532c-0.379-6.435-7.703-11.983-13.756-8.309  c-1.918,1.164-8.769,13.964-10.788,10.603c-0.779-1.298,1.116-5.541,1.64-6.633c4.939-10.304,22.492-9.549,23.9-21.352  c0.28-2.349,0.432-4.468-0.188-6.781c-0.526-1.967-1.994-3.375-3.199-4.938c-1.336-1.733-1.512-3.666-2.557-5.51  c-2.371-4.177-7.611-10.718-11.678-13.345c-1.711-1.104-3.713-1.277-4.971-2.832c-1.062-1.312-2.552-2.068-4.197-2.357  c-3.17-0.557-6.951,0.436-9.336,2.638c-2.522,2.332-5.721,7.364-5.454,10.945c0.278,3.732,3.016,6.716,4.402,10.044  c1.248,2.996,2.705,6.428,3.442,9.601c0.513,2.208,0.63,4.514,1.327,6.667c0.855,2.641,3.086,4.318,4.398,6.671  c1.557,2.789,2.165,6.449,2.236,9.602c0.036,1.582-0.027,3.308-0.643,4.791c-0.202,0.486-2.447,3.048-2.447,3.049  c-0.353-3.831,0.843-8.533-1.313-12.006c-1.222-1.968-2.781-3.528-4.918-2.572c-1.057,0.473-1.984,3.162-3.507,2.147  c-1.418-0.945-0.108-4.188-0.719-5.685c-0.712-1.742-2.647-2.838-4.112-3.837c-2.827-1.93-7.489-4.318-5.586-8.492  c1.67-3.664,2.848,2.337,3.756,3.662c1.403,2.05,5.323,3.763,6.699,0.676c1.148-2.574-1.746-7.242-2.523-9.696  c-1.182-3.728-2.747-8.06-5.309-11.069c-2.163-2.527-6.333-6.951-9.385-6.279c-4.117,0.906-9.325,9.238-10.722,12.818  c-1.357,3.477-4.426,12.611,2.837,11.302c1.601-0.288,4.608-3.402,6.263-2.365c4.476,2.806-7.56,7.528-9.274,7.616  c-2.234,0.114-4.364-0.311-6.342,0.595c-1.52,0.695-2.645,2.84-4.65,2.405c-2.438-0.529-1.64-2.405-0.999-4.332  c1.957-5.88-1.265-6.62-4.249-11.162c-2.188-3.33-3.261-7.779,1.031-9.922c2.496-1.246,4.901,0.492,7.45-1.123  c2.035-1.291,2.961-4.254,4.494-6.039c2.163-2.516,4.584-5.035,6.827-7.558c5.346-6.012,11.657-8.294,7.251-18.131  c-0.5-1.116-1.181-1.883-2.229-2.479c-1.002-0.57-1.728-1.336-2.738-1.873c-5.271-2.801-17.264-0.63-21.332,4.132  c-1.78,2.086-2.865,6.2-4.095,8.711c-1.438,2.938-1.873,3.989-0.869,7.284c1.524,5-2.863,7.783-1.766,12.127  c1.09,4.313,5.994,6.691-0.002,10.52c-2.807,1.791-5.906,2.498-9.109,3.347c-3.784,1.002-4.835,4.274-7.521,6.627  c-2.556,2.238-4.743,3.204-6.694,6.231c-3.881,6.021-6.556,13.631-7.368,20.748c-1.193,3.922-2.005,12.4,0.767,16.4  c0.334,0.988,1.045,1.92,1.451,2.896c1.129,2.719,2.754,5.077,3.652,7.946c0.776,2.487,2.498,4.565,3.2,7.081  c0.384,1.369,0.839,4.68-1.639,3.338c-0.979-0.531-1.041-1.604-1.348-2.577c-0.422-1.345-4.006-8.702-5.447-10.962  c-1.051-1.65-11.268-17.85-2.421-34.936c0.798-2.369,1.429-4.803,2.427-7.1c0.947-2.186,1.929-4.234,2.631-6.529  c0.901-2.943,2.515-7.738,0.471-10.531c-0.837-1.146-2.167-2.016-3.321-2.928c-0.247-0.195-3.295-3.463-4.459-5.065  c-0.868-1.198-1.34-2.71-2.47-3.662c-0.968-0.813-5.175-4.763-6.229-5.935c-0.854-0.951-1.22-1.707-2.633-1.887  c-1.595-0.203-3.191,0.34-4.723,0.703c-2.619,0.62-5.154,1.564-7.523,2.844c-3.271,1.764-5.476,5.403-8.014,8.053  c-1.502,1.566-3.353,2.74-4.607,4.541c-0.999,1.432-1.964,2.863-2.9,4.353c-2.359,3.752-4.863,7.458-7.869,10.729  c-1.871,7.631-10.935,25.189-8.086,19.107c1.159-2.479-1.245,5.686-1.514,8.364c-4.15,13.528,1.903,24.274,5.618,27.515  c4.355,3.801,6.81,0.653,10.98-1.365c8.135-3.935,19.943-0.528,27.449,3.256c3.882,1.955,7.523,4.412,11.302,6.5  c1.522,0.842,7.52,2.707,7.835,4.75c0.535,3.459-5.741,0.475-6.837,0.012c-4.422-1.864-8.38-4.829-12.26-7.585  c-2.962-2.104-7.301-4.791-11.072-4.874c-3.104-0.068-8.157,2.425-6.752,6.341c1.452,4.046,7.789,1.729,10.57,2.602  c5.4,1.695,0.438,1.78,1.281,5.022c0.543,2.084,5.572,4.51,7.498,5.061c1.188,3.952-4.397,4.854-3.835,9.056  c0.585,4.363,6.122,4.731,9.356,4.298c0.283,2.365-2.675,3.929-2.518,5.534c0.218,2.225,3.651,3.279,5.534,3.061  c2.517-0.293,4.486-3.563,7.012-2.616c2.761,1.037,1.955,5.511,4.146,7.08c2.506,1.795,7.573,0.1,10.452-0.232  c2.648-0.306,2.124-1.681,4.063,0.314c1.471,1.515,0.543,3.054,2.741,4.329c3.278,1.901,4.804-0.816,5.647,4.594  c0.563,3.617-1.572,7.594-0.657,11.01c1.878,7.008,7.538-0.6,7.52-4.012c-0.01-1.819-3.03-3.376,0.615-4.508  c2.909-0.904,2.874,2.341,3.961,4.347c1.28-0.975,5.235-1.687,6.66-1.021c3.322,1.551,1.99,8.403,5.435,7.742  c5.132-0.985,1.984-6.179,0.427-8.196c-2.186-2.832-3.76-4.262-0.857-7.821c-0.177,0.217,3.979,1.578,5.438-0.035  c1.646-1.82,1.054-6.315,0.927-8.501c-0.411-7.031,0.726-15.992-2.979-22.241c-2.387-4.027-2.424-8.284-2.924-12.774  c-0.628-5.629-3.242-10.457-3.159-16.213c0.046-3.145-1.091-5.788-0.214-8.935c1.19-4.272,3.063-2.892,4.104,0.009  c1.396,3.889,3.848,7.353,5.121,11.282C477.12,291.014,477.817,294.889,478.62,298.412z"
     stroke="#FFFFFF"
     fill="#E4BC96" /><line
     id="line274"
     y2="261.429"
     x2="461.429"
     y1="188.571"
     x1="344.286"
     stroke="#000000"
     fill="none" /><g
     id="g276">
	<path
   id="path278"
   d="M278.966,122.02c0.504-0.096,1.164-0.168,2.004-0.168c1.032,0,1.788,0.24,2.268,0.672c0.444,0.384,0.72,0.972,0.72,1.692   c0,0.732-0.216,1.308-0.636,1.728c-0.552,0.588-1.452,0.888-2.472,0.888c-0.312,0-0.6-0.012-0.84-0.072V130h-1.044V122.02z    M280.01,125.908c0.228,0.06,0.528,0.084,0.864,0.084c1.272,0,2.028-0.624,2.028-1.716c0-1.08-0.756-1.596-1.908-1.596   c-0.456,0-0.804,0.048-0.984,0.084V125.908z" />
	<path
   id="path280"
   d="M289.993,128.416c0,0.6,0.012,1.128,0.048,1.584h-0.936l-0.06-0.948h-0.024c-0.264,0.468-0.888,1.08-1.92,1.08   c-0.912,0-2.004-0.516-2.004-2.544v-3.396h1.056v3.204c0,1.104,0.348,1.86,1.296,1.86c0.708,0,1.2-0.492,1.392-0.972   c0.06-0.144,0.096-0.336,0.096-0.54v-3.552h1.056V128.416z" />
	<path
   id="path282"
   d="M291.745,121.48h1.056V130h-1.056V121.48z" />
	<path
   id="path284"
   d="M294.553,125.764c0-0.612-0.024-1.092-0.048-1.572h0.924l0.048,0.936h0.036c0.324-0.552,0.864-1.068,1.836-1.068   c0.78,0,1.38,0.48,1.632,1.164h0.024c0.18-0.336,0.42-0.576,0.66-0.756c0.348-0.264,0.72-0.408,1.272-0.408   c0.78,0,1.92,0.504,1.92,2.52V130h-1.032v-3.288c0-1.128-0.42-1.788-1.26-1.788c-0.612,0-1.068,0.444-1.26,0.948   c-0.048,0.156-0.084,0.348-0.084,0.528v3.6h-1.032v-3.48c0-0.936-0.408-1.596-1.212-1.596c-0.648,0-1.14,0.528-1.308,1.056   c-0.06,0.156-0.084,0.336-0.084,0.516V130h-1.032V125.764z" />
	<path
   id="path286"
   d="M306.925,130.132c-1.561,0-2.784-1.152-2.784-2.988c0-1.944,1.284-3.084,2.88-3.084c1.668,0,2.796,1.212,2.796,2.976   c0,2.16-1.5,3.096-2.88,3.096H306.925z M306.96,129.34c1.009,0,1.765-0.948,1.765-2.268c0-0.984-0.492-2.22-1.74-2.22   c-1.235,0-1.776,1.152-1.776,2.256c0,1.272,0.721,2.232,1.74,2.232H306.96z" />
	<path
   id="path288"
   d="M311.149,125.764c0-0.612-0.013-1.092-0.048-1.572h0.936l0.061,0.948h0.023c0.289-0.54,0.961-1.08,1.92-1.08   c0.805,0,2.053,0.48,2.053,2.472V130h-1.057v-3.348c0-0.936-0.348-1.728-1.344-1.728c-0.684,0-1.225,0.492-1.416,1.08   c-0.048,0.132-0.072,0.324-0.072,0.492V130h-1.056V125.764z" />
	<path
   id="path290"
   d="M318.312,123.124c-0.396,0-0.659-0.312-0.659-0.684s0.276-0.672,0.684-0.672c0.408,0,0.673,0.3,0.673,0.672   s-0.265,0.684-0.685,0.684H318.312z M317.808,130v-5.808h1.057V130H317.808z" />
	<path
   id="path292"
   d="M324.757,129.796c-0.276,0.132-0.889,0.336-1.668,0.336c-1.752,0-2.893-1.188-2.893-2.976c0-1.788,1.225-3.096,3.12-3.096   c0.624,0,1.176,0.156,1.464,0.312l-0.24,0.804c-0.252-0.132-0.648-0.276-1.224-0.276c-1.332,0-2.052,0.996-2.052,2.208   c0,1.344,0.863,2.172,2.016,2.172c0.6,0,0.996-0.144,1.296-0.276L324.757,129.796z" />
	<path
   id="path294"
   d="M283.478,143.332c0.324,0.192,0.876,0.408,1.404,0.408c0.756,0,1.116-0.372,1.116-0.864c0-0.504-0.3-0.78-1.068-1.068   c-1.056-0.384-1.548-0.948-1.548-1.644c0-0.936,0.768-1.704,2.004-1.704c0.588,0,1.104,0.156,1.416,0.36l-0.252,0.756   c-0.228-0.132-0.648-0.336-1.188-0.336c-0.624,0-0.96,0.36-0.96,0.792c0,0.492,0.336,0.708,1.092,0.996   c0.996,0.372,1.524,0.876,1.524,1.752c0,1.032-0.804,1.752-2.16,1.752c-0.636,0-1.224-0.168-1.632-0.408L283.478,143.332z" />
	<path
   id="path296"
   d="M289.646,137.2v1.392h1.512v0.804h-1.512v3.132c0,0.72,0.204,1.128,0.792,1.128c0.288,0,0.456-0.024,0.612-0.072   l0.048,0.804c-0.204,0.072-0.528,0.144-0.936,0.144c-0.492,0-0.888-0.168-1.14-0.444c-0.288-0.324-0.408-0.84-0.408-1.524v-3.168   h-0.9v-0.804h0.9v-1.068L289.646,137.2z" />
	<path
   id="path298"
   d="M292.874,141.676c0.024,1.428,0.924,2.016,1.98,2.016c0.756,0,1.224-0.132,1.608-0.288l0.192,0.744   c-0.372,0.168-1.02,0.372-1.944,0.372c-1.776,0-2.856-1.188-2.856-2.928c0-1.764,1.044-3.144,2.736-3.144   c1.896,0,2.388,1.668,2.388,2.736c0,0.216-0.012,0.384-0.036,0.504L292.874,141.676z M295.958,140.92   c0.012-0.66-0.276-1.716-1.452-1.716c-1.08,0-1.536,0.984-1.62,1.716H295.958z" />
	<path
   id="path300"
   d="M298.285,140.164c0-0.612-0.012-1.092-0.048-1.572h0.936l0.06,0.948h0.024c0.288-0.54,0.96-1.08,1.92-1.08   c0.804,0,2.052,0.48,2.052,2.472v3.468h-1.056v-3.348c0-0.936-0.348-1.728-1.344-1.728c-0.684,0-1.224,0.492-1.416,1.08   c-0.048,0.132-0.072,0.324-0.072,0.492v3.504h-1.056V140.164z" />
	<path
   id="path302"
   d="M307.31,144.532c-1.561,0-2.785-1.152-2.785-2.988c0-1.944,1.285-3.084,2.88-3.084c1.668,0,2.795,1.212,2.795,2.976   c0,2.16-1.5,3.096-2.879,3.096H307.31z M307.345,143.74c1.008,0,1.764-0.948,1.764-2.268c0-0.984-0.492-2.22-1.74-2.22   c-1.235,0-1.775,1.152-1.775,2.256c0,1.272,0.721,2.232,1.74,2.232H307.345z" />
	<path
   id="path304"
   d="M311.389,143.332c0.324,0.192,0.876,0.408,1.404,0.408c0.756,0,1.116-0.372,1.116-0.864c0-0.504-0.301-0.78-1.068-1.068   c-1.057-0.384-1.548-0.948-1.548-1.644c0-0.936,0.768-1.704,2.004-1.704c0.588,0,1.104,0.156,1.416,0.36l-0.252,0.756   c-0.228-0.132-0.647-0.336-1.188-0.336c-0.623,0-0.96,0.36-0.96,0.792c0,0.492,0.337,0.708,1.093,0.996   c0.996,0.372,1.523,0.876,1.523,1.752c0,1.032-0.804,1.752-2.16,1.752c-0.636,0-1.224-0.168-1.632-0.408L311.389,143.332z" />
	<path
   id="path306"
   d="M316.789,137.524c-0.396,0-0.659-0.312-0.659-0.684s0.276-0.672,0.684-0.672c0.408,0,0.673,0.3,0.673,0.672   s-0.265,0.684-0.685,0.684H316.789z M316.285,144.4v-5.808h1.057v5.808H316.285z" />
	<path
   id="path308"
   d="M318.949,143.332c0.324,0.192,0.877,0.408,1.404,0.408c0.756,0,1.116-0.372,1.116-0.864c0-0.504-0.3-0.78-1.067-1.068   c-1.057-0.384-1.549-0.948-1.549-1.644c0-0.936,0.768-1.704,2.004-1.704c0.588,0,1.104,0.156,1.416,0.36l-0.252,0.756   c-0.228-0.132-0.647-0.336-1.188-0.336c-0.624,0-0.96,0.36-0.96,0.792c0,0.492,0.336,0.708,1.092,0.996   c0.996,0.372,1.524,0.876,1.524,1.752c0,1.032-0.805,1.752-2.16,1.752c-0.637,0-1.225-0.168-1.633-0.408L318.949,143.332z" />
</g><line
     id="line310"
     y2="211.428"
     x2="440"
     y1="138.571"
     x1="332.858"
     stroke="#000000"
     fill="none" /><g
     id="g312">
	<path
   id="path314"
   d="M299.872,84.417c-2.148,0-3.636-1.656-3.636-4.104c0-2.568,1.584-4.248,3.744-4.248c2.22,0,3.648,1.692,3.648,4.092   c0,2.772-1.692,4.26-3.744,4.26H299.872z M299.92,83.565c1.656,0,2.592-1.524,2.592-3.36c0-1.608-0.84-3.288-2.58-3.288   c-1.74,0-2.604,1.62-2.604,3.372c0,1.704,0.936,3.276,2.58,3.276H299.92z" />
	<path
   id="path316"
   d="M305.537,78.477l1.139,3.252c0.193,0.54,0.349,1.02,0.469,1.5h0.036c0.132-0.48,0.3-0.96,0.491-1.5l1.129-3.252h1.104   l-2.279,5.808h-1.008l-2.209-5.808H305.537z" />
	<path
   id="path318"
   d="M311.369,81.561c0.023,1.428,0.924,2.016,1.979,2.016c0.756,0,1.224-0.132,1.608-0.288l0.191,0.744   c-0.371,0.168-1.02,0.372-1.943,0.372c-1.776,0-2.856-1.188-2.856-2.928c0-1.764,1.044-3.144,2.735-3.144   c1.896,0,2.389,1.668,2.389,2.736c0,0.216-0.012,0.384-0.036,0.504L311.369,81.561z M314.453,80.805   c0.012-0.66-0.276-1.716-1.453-1.716c-1.08,0-1.535,0.984-1.619,1.716H314.453z" />
	<path
   id="path320"
   d="M316.792,80.289c0-0.684-0.013-1.272-0.049-1.812h0.924l0.049,1.14h0.035c0.264-0.78,0.912-1.272,1.621-1.272   c0.107,0,0.191,0.012,0.287,0.036v0.984c-0.119-0.012-0.229-0.024-0.372-0.024c-0.743,0-1.272,0.564-1.416,1.344   c-0.024,0.156-0.036,0.324-0.036,0.504v3.096h-1.056L316.792,80.289z" />
	<path
   id="path322"
   d="M320.763,80.289c0-0.684-0.012-1.272-0.048-1.812h0.925l0.047,1.14h0.037c0.264-0.78,0.912-1.272,1.619-1.272   c0.108,0,0.192,0.012,0.288,0.036v0.984c-0.12-0.012-0.228-0.024-0.372-0.024c-0.744,0-1.271,0.564-1.416,1.344   c-0.023,0.156-0.035,0.324-0.035,0.504v3.096h-1.057L320.763,80.289z" />
	<path
   id="path324"
   d="M325.227,77.409c-0.396,0-0.659-0.312-0.659-0.684s0.275-0.672,0.684-0.672s0.672,0.3,0.672,0.672   s-0.264,0.684-0.684,0.684H325.227z M324.723,84.285v-5.808h1.056v5.808H324.723z" />
	<path
   id="path326"
   d="M332.547,75.765v7.02c0,0.516,0.012,1.104,0.048,1.5h-0.947l-0.049-1.008h-0.023c-0.324,0.648-1.021,1.14-1.969,1.14   c-1.404,0-2.496-1.188-2.496-2.952c-0.012-1.944,1.201-3.12,2.604-3.12c0.899,0,1.5,0.42,1.752,0.876h0.024v-3.456H332.547z    M331.492,80.841c0-0.144-0.012-0.312-0.049-0.456c-0.156-0.66-0.731-1.212-1.523-1.212c-1.092,0-1.74,0.96-1.74,2.232   c0,1.188,0.588,2.16,1.717,2.16c0.707,0,1.355-0.48,1.547-1.26c0.037-0.144,0.049-0.288,0.049-0.456V80.841z" />
	<path
   id="path328"
   d="M334.803,77.409c-0.396,0-0.659-0.312-0.659-0.684s0.275-0.672,0.684-0.672s0.672,0.3,0.672,0.672   s-0.264,0.684-0.684,0.684H334.803z M334.299,84.285v-5.808h1.056v5.808H334.299z" />
	<path
   id="path330"
   d="M337.107,80.049c0-0.612-0.012-1.092-0.047-1.572h0.936l0.061,0.948h0.023c0.288-0.54,0.96-1.08,1.92-1.08   c0.805,0,2.052,0.48,2.052,2.472v3.468h-1.056v-3.348c0-0.936-0.348-1.728-1.344-1.728c-0.685,0-1.225,0.492-1.416,1.08   c-0.049,0.132-0.072,0.324-0.072,0.492v3.504h-1.057V80.049z" />
	<path
   id="path332"
   d="M348.736,83.433c0,1.344-0.277,2.148-0.828,2.664c-0.576,0.516-1.393,0.696-2.125,0.696c-0.695,0-1.463-0.168-1.932-0.48   l0.264-0.816c0.385,0.252,0.984,0.468,1.705,0.468c1.079,0,1.871-0.564,1.871-2.04v-0.636h-0.023   c-0.313,0.54-0.948,0.972-1.848,0.972c-1.441,0-2.473-1.224-2.473-2.844c0-1.968,1.284-3.072,2.628-3.072   c1.008,0,1.548,0.516,1.812,0.996h0.024l0.036-0.864h0.936c-0.035,0.408-0.047,0.876-0.047,1.584V83.433z M347.679,80.757   c0-0.168-0.012-0.324-0.061-0.468c-0.191-0.624-0.695-1.128-1.476-1.128c-1.008,0-1.728,0.852-1.728,2.208   c0,1.128,0.588,2.088,1.716,2.088c0.659,0,1.247-0.408,1.464-1.092c0.061-0.168,0.084-0.372,0.084-0.564V80.757z" />
	<path
   id="path334"
   d="M357.111,82.893c0,0.504,0.024,0.996,0.084,1.392h-0.947l-0.097-0.732h-0.036c-0.312,0.456-0.947,0.864-1.775,0.864   c-1.176,0-1.776-0.828-1.776-1.668c0-1.404,1.248-2.172,3.492-2.16v-0.12c0-0.48-0.132-1.356-1.32-1.344   c-0.552,0-1.116,0.156-1.524,0.432l-0.239-0.708c0.479-0.3,1.188-0.504,1.92-0.504c1.788,0,2.22,1.212,2.22,2.376V82.893z    M356.08,81.321c-1.152-0.024-2.461,0.18-2.461,1.308c0,0.696,0.457,1.008,0.984,1.008c0.768,0,1.26-0.48,1.428-0.972   c0.036-0.108,0.049-0.228,0.049-0.336V81.321z" />
	<path
   id="path336"
   d="M361.167,84.417c-1.561,0-2.784-1.152-2.784-2.988c0-1.944,1.284-3.084,2.88-3.084c1.668,0,2.796,1.212,2.796,2.976   c0,2.16-1.5,3.096-2.88,3.096H361.167z M361.203,83.625c1.009,0,1.765-0.948,1.765-2.268c0-0.984-0.492-2.22-1.74-2.22   c-1.235,0-1.776,1.152-1.776,2.256c0,1.272,0.721,2.232,1.74,2.232H361.203z" />
	<path
   id="path338"
   d="M365.404,80.289c0-0.684-0.013-1.272-0.049-1.812h0.924l0.049,1.14h0.035c0.264-0.78,0.912-1.272,1.621-1.272   c0.107,0,0.191,0.012,0.287,0.036v0.984c-0.119-0.012-0.229-0.024-0.372-0.024c-0.743,0-1.272,0.564-1.416,1.344   c-0.024,0.156-0.036,0.324-0.036,0.504v3.096h-1.056L365.404,80.289z" />
	<path
   id="path340"
   d="M370.875,77.085v1.392h1.513v0.804h-1.513v3.132c0,0.72,0.205,1.128,0.793,1.128c0.287,0,0.455-0.024,0.611-0.072   l0.049,0.804c-0.205,0.072-0.529,0.144-0.937,0.144c-0.492,0-0.888-0.168-1.14-0.444c-0.289-0.324-0.408-0.84-0.408-1.524v-3.168   h-0.9v-0.804h0.9v-1.068L370.875,77.085z" />
	<path
   id="path342"
   d="M377.667,82.893c0,0.504,0.023,0.996,0.084,1.392h-0.949l-0.096-0.732h-0.035c-0.313,0.456-0.949,0.864-1.777,0.864   c-1.176,0-1.775-0.828-1.775-1.668c0-1.404,1.248-2.172,3.492-2.16v-0.12c0-0.48-0.133-1.356-1.32-1.344   c-0.552,0-1.115,0.156-1.523,0.432l-0.24-0.708c0.48-0.3,1.188-0.504,1.92-0.504c1.788,0,2.221,1.212,2.221,2.376V82.893z    M376.634,81.321c-1.151-0.024-2.459,0.18-2.459,1.308c0,0.696,0.455,1.008,0.983,1.008c0.769,0,1.261-0.48,1.429-0.972   c0.035-0.108,0.047-0.228,0.047-0.336V81.321z" />
</g><line
     id="line344"
     y2="227.143"
     x2="484.286"
     y1="94.286"
     x1="357.143"
     stroke="#000000"
     fill="none" /><g
     id="g346">
	<path
   id="path348"
   d="M265.258,247.747c0.528-0.108,1.296-0.181,2.004-0.181c1.116,0,1.848,0.217,2.352,0.673   c0.396,0.348,0.636,0.899,0.636,1.535c0,1.057-0.684,1.765-1.524,2.053v0.036c0.612,0.216,0.984,0.792,1.188,1.632   c0.264,1.128,0.456,1.908,0.612,2.22h-1.08c-0.132-0.228-0.312-0.924-0.528-1.932c-0.24-1.116-0.684-1.536-1.632-1.572h-0.984   v3.504h-1.044V247.747z M266.302,251.419h1.068c1.116,0,1.824-0.612,1.824-1.536c0-1.044-0.756-1.5-1.86-1.5   c-0.504,0-0.852,0.048-1.032,0.096V251.419z" />
	<path
   id="path350"
   d="M272.302,248.839c-0.396,0-0.66-0.313-0.66-0.684c0-0.372,0.276-0.673,0.684-0.673c0.408,0,0.672,0.301,0.672,0.673   c0,0.371-0.264,0.684-0.684,0.684H272.302z M271.798,255.715v-5.808h1.056v5.808H271.798z" />
	<path
   id="path352"
   d="M279.574,254.863c0,1.344-0.276,2.147-0.828,2.663c-0.576,0.517-1.392,0.696-2.124,0.696c-0.696,0-1.464-0.168-1.932-0.479   l0.264-0.816c0.384,0.252,0.984,0.468,1.704,0.468c1.08,0,1.872-0.563,1.872-2.04v-0.636h-0.024   c-0.312,0.54-0.948,0.972-1.848,0.972c-1.44,0-2.472-1.224-2.472-2.844c0-1.968,1.284-3.072,2.628-3.072   c1.008,0,1.548,0.517,1.812,0.996h0.024l0.036-0.863h0.936c-0.036,0.407-0.048,0.876-0.048,1.584V254.863z M278.518,252.187   c0-0.168-0.012-0.323-0.06-0.468c-0.192-0.624-0.696-1.128-1.476-1.128c-1.008,0-1.728,0.852-1.728,2.208   c0,1.128,0.588,2.088,1.716,2.088c0.66,0,1.248-0.408,1.464-1.092c0.06-0.168,0.084-0.372,0.084-0.564V252.187z" />
	<path
   id="path354"
   d="M281.314,247.194h1.056v3.624h0.024c0.168-0.3,0.432-0.575,0.756-0.743c0.312-0.192,0.684-0.301,1.08-0.301   c0.78,0,2.028,0.48,2.028,2.484v3.456h-1.056v-3.336c0-0.948-0.348-1.729-1.344-1.729c-0.684,0-1.212,0.48-1.416,1.057   c-0.06,0.144-0.072,0.3-0.072,0.504v3.504h-1.056V247.194z" />
	<path
   id="path356"
   d="M289.197,248.515v1.393h1.512v0.804h-1.512v3.132c0,0.72,0.204,1.128,0.792,1.128c0.288,0,0.456-0.023,0.612-0.072   l0.048,0.805c-0.204,0.071-0.528,0.144-0.936,0.144c-0.492,0-0.888-0.168-1.14-0.443c-0.288-0.324-0.408-0.841-0.408-1.524v-3.168   h-0.9v-0.804h0.9v-1.068L289.197,248.515z" />
	<path
   id="path358"
   d="M294.849,249.907l1.14,3.252c0.192,0.54,0.348,1.02,0.468,1.5h0.036c0.132-0.48,0.3-0.96,0.492-1.5l1.128-3.252h1.104   l-2.28,5.808h-1.008l-2.208-5.808H294.849z" />
	<path
   id="path360"
   d="M300.681,252.991c0.024,1.428,0.924,2.016,1.98,2.016c0.756,0,1.224-0.132,1.608-0.288l0.192,0.744   c-0.372,0.168-1.02,0.372-1.944,0.372c-1.776,0-2.856-1.188-2.856-2.928c0-1.765,1.044-3.145,2.736-3.145   c1.896,0,2.388,1.668,2.388,2.736c0,0.216-0.012,0.384-0.035,0.504L300.681,252.991z M303.765,252.234   c0.012-0.659-0.276-1.716-1.452-1.716c-1.08,0-1.536,0.984-1.62,1.716H303.765z" />
	<path
   id="path362"
   d="M306.093,251.479c0-0.611-0.013-1.092-0.049-1.571h0.937l0.06,0.947h0.024c0.288-0.54,0.96-1.08,1.92-1.08   c0.804,0,2.052,0.48,2.052,2.473v3.468h-1.056v-3.348c0-0.937-0.349-1.729-1.345-1.729c-0.684,0-1.224,0.492-1.416,1.08   c-0.047,0.132-0.071,0.324-0.071,0.492v3.504h-1.056V251.479z" />
	<path
   id="path364"
   d="M313.976,248.515v1.393h1.513v0.804h-1.513v3.132c0,0.72,0.205,1.128,0.793,1.128c0.287,0,0.455-0.023,0.611-0.072   l0.049,0.805c-0.205,0.071-0.529,0.144-0.937,0.144c-0.492,0-0.888-0.168-1.14-0.443c-0.289-0.324-0.408-0.841-0.408-1.524v-3.168   h-0.9v-0.804h0.9v-1.068L313.976,248.515z" />
	<path
   id="path366"
   d="M316.689,251.719c0-0.684-0.013-1.271-0.049-1.812h0.924l0.049,1.14h0.035c0.264-0.78,0.912-1.272,1.621-1.272   c0.107,0,0.191,0.013,0.287,0.036v0.984c-0.119-0.012-0.229-0.024-0.372-0.024c-0.743,0-1.272,0.564-1.416,1.345   c-0.024,0.155-0.036,0.323-0.036,0.504v3.096h-1.056L316.689,251.719z" />
	<path
   id="path368"
   d="M321.152,248.839c-0.396,0-0.66-0.313-0.66-0.684c0-0.372,0.276-0.673,0.684-0.673c0.408,0,0.673,0.301,0.673,0.673   c0,0.371-0.265,0.684-0.685,0.684H321.152z M320.648,255.715v-5.808h1.057v5.808H320.648z" />
	<path
   id="path370"
   d="M327.596,255.511c-0.276,0.132-0.888,0.336-1.668,0.336c-1.752,0-2.892-1.188-2.892-2.976s1.224-3.097,3.119-3.097   c0.625,0,1.176,0.156,1.465,0.313l-0.24,0.804c-0.252-0.132-0.648-0.275-1.225-0.275c-1.332,0-2.052,0.995-2.052,2.208   c0,1.344,0.864,2.172,2.017,2.172c0.6,0,0.996-0.145,1.295-0.276L327.596,255.511z" />
	<path
   id="path372"
   d="M333.692,254.131c0,0.6,0.013,1.128,0.048,1.584h-0.936l-0.061-0.948h-0.023c-0.264,0.468-0.889,1.08-1.92,1.08   c-0.912,0-2.004-0.516-2.004-2.544v-3.396h1.056v3.203c0,1.104,0.349,1.86,1.296,1.86c0.708,0,1.2-0.492,1.393-0.972   c0.06-0.145,0.096-0.336,0.096-0.54v-3.552h1.056V254.131z" />
	<path
   id="path374"
   d="M335.444,247.194h1.056v8.521h-1.056V247.194z" />
	<path
   id="path376"
   d="M342.344,254.323c0,0.504,0.024,0.995,0.084,1.392h-0.948l-0.096-0.732h-0.036c-0.312,0.456-0.948,0.864-1.776,0.864   c-1.176,0-1.775-0.828-1.775-1.668c0-1.404,1.248-2.172,3.492-2.16v-0.12c0-0.479-0.133-1.355-1.32-1.344   c-0.553,0-1.116,0.156-1.524,0.432l-0.239-0.708c0.479-0.3,1.188-0.504,1.92-0.504c1.787,0,2.22,1.212,2.22,2.376V254.323z    M341.312,252.751c-1.152-0.024-2.46,0.18-2.46,1.308c0,0.696,0.456,1.008,0.983,1.008c0.769,0,1.261-0.479,1.429-0.972   c0.036-0.107,0.048-0.228,0.048-0.336V252.751z" />
	<path
   id="path378"
   d="M344.048,251.719c0-0.684-0.013-1.271-0.049-1.812h0.924l0.049,1.14h0.035c0.264-0.78,0.912-1.272,1.621-1.272   c0.107,0,0.191,0.013,0.287,0.036v0.984c-0.119-0.012-0.229-0.024-0.372-0.024c-0.743,0-1.272,0.564-1.416,1.345   c-0.024,0.155-0.036,0.323-0.036,0.504v3.096h-1.056L344.048,251.719z" />
	<path
   id="path380"
   d="M276.555,261.595h1.056v3.624h0.024c0.168-0.3,0.432-0.575,0.756-0.743c0.312-0.192,0.684-0.301,1.08-0.301   c0.78,0,2.028,0.48,2.028,2.484v3.456h-1.056v-3.336c0-0.948-0.348-1.729-1.344-1.729c-0.684,0-1.212,0.48-1.416,1.057   c-0.06,0.144-0.072,0.3-0.072,0.504v3.504h-1.056V261.595z" />
	<path
   id="path382"
   d="M283.443,264.308l1.26,3.432c0.144,0.384,0.288,0.84,0.384,1.188h0.024c0.108-0.348,0.228-0.792,0.372-1.212l1.152-3.407   h1.116l-1.584,4.14c-0.756,1.992-1.272,3.012-1.992,3.648c-0.528,0.443-1.032,0.624-1.296,0.672l-0.264-0.889   c0.264-0.071,0.612-0.239,0.924-0.516c0.288-0.229,0.636-0.636,0.888-1.176c0.048-0.108,0.084-0.181,0.084-0.252   c0-0.061-0.024-0.145-0.084-0.265l-2.136-5.363H283.443z" />
	<path
   id="path384"
   d="M288.711,266.203c0-0.744-0.012-1.344-0.048-1.896h0.948l0.06,0.995h0.024c0.42-0.72,1.116-1.128,2.052-1.128   c1.416,0,2.472,1.188,2.472,2.952c0,2.088-1.284,3.12-2.64,3.12c-0.78,0-1.44-0.336-1.788-0.912h-0.024v3.156h-1.056V266.203z    M289.767,267.751c0,0.145,0.012,0.3,0.048,0.433c0.18,0.731,0.828,1.235,1.572,1.235c1.116,0,1.764-0.912,1.764-2.244   c0-1.164-0.6-2.159-1.716-2.159c-0.72,0-1.404,0.504-1.608,1.296c-0.024,0.144-0.06,0.3-0.06,0.432V267.751z" />
	<path
   id="path386"
   d="M296.15,267.392c0.024,1.428,0.924,2.016,1.98,2.016c0.756,0,1.224-0.132,1.608-0.288l0.192,0.744   c-0.372,0.168-1.02,0.372-1.944,0.372c-1.776,0-2.856-1.188-2.856-2.928c0-1.765,1.044-3.145,2.736-3.145   c1.896,0,2.388,1.668,2.388,2.736c0,0.216-0.012,0.384-0.036,0.504L296.15,267.392z M299.234,266.635   c0.012-0.659-0.276-1.716-1.452-1.716c-1.08,0-1.536,0.984-1.62,1.716H299.234z" />
	<path
   id="path388"
   d="M301.574,266.119c0-0.684-0.012-1.271-0.048-1.812h0.924l0.048,1.14h0.036c0.264-0.78,0.912-1.272,1.62-1.272   c0.108,0,0.192,0.013,0.288,0.036v0.984c-0.12-0.012-0.228-0.024-0.372-0.024c-0.744,0-1.272,0.564-1.416,1.345   c-0.024,0.155-0.036,0.323-0.036,0.504v3.096h-1.056L301.574,266.119z" />
	<path
   id="path390"
   d="M307.046,262.915v1.393h1.512v0.804h-1.512v3.132c0,0.72,0.203,1.128,0.791,1.128c0.289,0,0.457-0.023,0.613-0.072   l0.047,0.805c-0.203,0.071-0.527,0.144-0.936,0.144c-0.492,0-0.889-0.168-1.141-0.443c-0.287-0.324-0.407-0.841-0.407-1.524v-3.168   h-0.9v-0.804h0.9v-1.068L307.046,262.915z" />
	<path
   id="path392"
   d="M309.757,266.119c0-0.684-0.012-1.271-0.048-1.812h0.925l0.047,1.14h0.037c0.264-0.78,0.912-1.272,1.619-1.272   c0.108,0,0.192,0.013,0.288,0.036v0.984c-0.12-0.012-0.228-0.024-0.372-0.024c-0.744,0-1.271,0.564-1.416,1.345   c-0.023,0.155-0.035,0.323-0.035,0.504v3.096h-1.057L309.757,266.119z" />
	<path
   id="path394"
   d="M315.961,270.247c-1.56,0-2.784-1.152-2.784-2.988c0-1.943,1.284-3.084,2.88-3.084c1.668,0,2.796,1.212,2.796,2.977   c0,2.16-1.5,3.096-2.88,3.096H315.961z M315.998,269.455c1.008,0,1.764-0.948,1.764-2.268c0-0.984-0.492-2.221-1.74-2.221   c-1.236,0-1.775,1.152-1.775,2.257c0,1.271,0.72,2.231,1.74,2.231H315.998z" />
	<path
   id="path396"
   d="M320.185,266.203c0-0.744-0.012-1.344-0.048-1.896h0.948l0.06,0.995h0.024c0.42-0.72,1.115-1.128,2.052-1.128   c1.416,0,2.472,1.188,2.472,2.952c0,2.088-1.283,3.12-2.64,3.12c-0.78,0-1.44-0.336-1.788-0.912h-0.023v3.156h-1.057V266.203z    M321.242,267.751c0,0.145,0.012,0.3,0.047,0.433c0.181,0.731,0.828,1.235,1.572,1.235c1.116,0,1.764-0.912,1.764-2.244   c0-1.164-0.6-2.159-1.715-2.159c-0.721,0-1.404,0.504-1.608,1.296c-0.024,0.144-0.06,0.3-0.06,0.432V267.751z" />
	<path
   id="path398"
   d="M327.013,261.595h1.056v3.624h0.024c0.168-0.3,0.432-0.575,0.756-0.743c0.312-0.192,0.684-0.301,1.08-0.301   c0.779,0,2.027,0.48,2.027,2.484v3.456h-1.056v-3.336c0-0.948-0.349-1.729-1.345-1.729c-0.684,0-1.211,0.48-1.416,1.057   c-0.06,0.144-0.071,0.3-0.071,0.504v3.504h-1.056V261.595z" />
	<path
   id="path400"
   d="M333.9,264.308l1.261,3.432c0.144,0.384,0.288,0.84,0.384,1.188h0.024c0.108-0.348,0.228-0.792,0.372-1.212l1.152-3.407   h1.115l-1.584,4.14c-0.756,1.992-1.271,3.012-1.992,3.648c-0.527,0.443-1.031,0.624-1.296,0.672l-0.264-0.889   c0.264-0.071,0.612-0.239,0.924-0.516c0.288-0.229,0.636-0.636,0.888-1.176c0.049-0.108,0.084-0.181,0.084-0.252   c0-0.061-0.023-0.145-0.084-0.265l-2.136-5.363H333.9z" />
</g><line
     id="line402"
     y2="357.143"
     x2="415.714"
     y1="282.857"
     x1="312.858"
     stroke="#000000"
     fill="none" /><g
     id="g3525"><path
       inkscape:connector-curvature="0"
       id="path230"
       d="m 284.799,182.99 c 0.024,1.428 0.924,2.016 1.98,2.016 0.756,0 1.224,-0.132 1.608,-0.288 l 0.192,0.744 c -0.372,0.168 -1.02,0.372 -1.944,0.372 -1.776,0 -2.856,-1.188 -2.856,-2.928 0,-1.765 1.044,-3.145 2.736,-3.145 1.896,0 2.388,1.668 2.388,2.736 0,0.216 -0.012,0.384 -0.036,0.504 l -4.068,-0.011 z m 3.084,-0.757 c 0.012,-0.659 -0.276,-1.716 -1.452,-1.716 -1.08,0 -1.536,0.984 -1.62,1.716 h 3.072 z" /><path
       inkscape:connector-curvature="0"
       id="path232"
       d="m 290.21,181.478 c 0,-0.611 -0.012,-1.092 -0.048,-1.571 h 0.936 l 0.06,0.947 h 0.024 c 0.288,-0.54 0.96,-1.08 1.92,-1.08 0.804,0 2.052,0.48 2.052,2.473 v 3.468 h -1.056 v -3.348 c 0,-0.937 -0.348,-1.729 -1.344,-1.729 -0.684,0 -1.224,0.492 -1.416,1.08 -0.048,0.132 -0.072,0.324 -0.072,0.492 v 3.504 h -1.056 v -4.236 z" /><path
       inkscape:connector-curvature="0"
       id="path234"
       d="m 298.095,178.514 v 1.393 h 1.512 v 0.804 h -1.512 v 3.132 c 0,0.72 0.204,1.128 0.792,1.128 0.288,0 0.456,-0.023 0.612,-0.072 l 0.048,0.805 c -0.204,0.071 -0.528,0.144 -0.936,0.144 -0.492,0 -0.888,-0.168 -1.14,-0.443 -0.288,-0.324 -0.408,-0.841 -0.408,-1.524 v -3.168 h -0.9 v -0.804 h 0.9 v -1.068 l 1.032,-0.327 z" /><path
       inkscape:connector-curvature="0"
       id="path236"
       d="m 300.807,181.718 c 0,-0.684 -0.012,-1.271 -0.048,-1.812 h 0.924 l 0.048,1.14 h 0.036 c 0.264,-0.78 0.912,-1.272 1.62,-1.272 0.108,0 0.192,0.013 0.288,0.036 v 0.984 c -0.12,-0.012 -0.228,-0.024 -0.372,-0.024 -0.744,0 -1.272,0.564 -1.416,1.345 -0.024,0.155 -0.036,0.323 -0.036,0.504 v 3.096 h -1.056 l 0.012,-3.997 z" /><path
       inkscape:connector-curvature="0"
       id="path238"
       d="m 305.27,178.838 c -0.396,0 -0.659,-0.313 -0.659,-0.684 0,-0.372 0.275,-0.673 0.684,-0.673 0.409,0 0.672,0.301 0.672,0.673 0,0.371 -0.264,0.684 -0.684,0.684 h -0.013 z m -0.504,6.876 v -5.808 h 1.056 v 5.808 h -1.056 z" /><path
       inkscape:connector-curvature="0"
       id="path240"
       d="m 311.714,185.51 c -0.275,0.132 -0.889,0.336 -1.668,0.336 -1.752,0 -2.893,-1.188 -2.893,-2.976 0,-1.788 1.225,-3.097 3.121,-3.097 0.623,0 1.176,0.156 1.463,0.313 l -0.24,0.804 c -0.252,-0.132 -0.647,-0.275 -1.223,-0.275 -1.332,0 -2.053,0.995 -2.053,2.208 0,1.344 0.864,2.172 2.016,2.172 0.601,0 0.996,-0.145 1.297,-0.276 l 0.18,0.791 z" /><path
       inkscape:connector-curvature="0"
       id="path242"
       d="m 317.81,184.13 c 0,0.6 0.012,1.128 0.049,1.584 h -0.937 l -0.06,-0.948 h -0.024 c -0.265,0.468 -0.888,1.08 -1.92,1.08 -0.912,0 -2.005,-0.516 -2.005,-2.544 v -3.396 h 1.057 v 3.203 c 0,1.104 0.348,1.86 1.296,1.86 0.708,0 1.2,-0.492 1.392,-0.972 0.061,-0.145 0.097,-0.336 0.097,-0.54 v -3.552 h 1.056 v 4.225 z" /><path
       inkscape:connector-curvature="0"
       id="path248"
       d="m 328.166,181.718 c 0,-0.684 -0.012,-1.271 -0.048,-1.812 h 0.925 l 0.047,1.14 h 0.037 c 0.264,-0.78 0.911,-1.272 1.619,-1.272 0.108,0 0.192,0.013 0.288,0.036 v 0.984 c -0.12,-0.012 -0.228,-0.024 -0.372,-0.024 -0.744,0 -1.271,0.564 -1.416,1.345 -0.023,0.155 -0.035,0.323 -0.035,0.504 v 3.096 h -1.057 l 0.012,-3.997 z" /><path
       inkscape:connector-curvature="0"
       id="path250"
       d="m 274.269,199.046 c 0.324,0.192 0.876,0.408 1.404,0.408 0.756,0 1.116,-0.372 1.116,-0.864 0,-0.504 -0.3,-0.779 -1.068,-1.067 -1.056,-0.384 -1.548,-0.948 -1.548,-1.645 0,-0.936 0.768,-1.704 2.004,-1.704 0.588,0 1.104,0.156 1.416,0.36 l -0.252,0.756 c -0.228,-0.132 -0.648,-0.336 -1.188,-0.336 -0.624,0 -0.96,0.36 -0.96,0.792 0,0.492 0.336,0.708 1.092,0.996 0.996,0.372 1.524,0.876 1.524,1.752 0,1.032 -0.804,1.752 -2.16,1.752 -0.636,0 -1.224,-0.168 -1.632,-0.408 l 0.252,-0.792 z" /><path
       inkscape:connector-curvature="0"
       id="path252"
       d="m 279.765,197.391 c 0.024,1.428 0.924,2.016 1.98,2.016 0.756,0 1.224,-0.132 1.608,-0.288 l 0.192,0.744 c -0.372,0.168 -1.02,0.372 -1.944,0.372 -1.776,0 -2.856,-1.188 -2.856,-2.928 0,-1.765 1.044,-3.145 2.736,-3.145 1.896,0 2.388,1.668 2.388,2.736 0,0.216 -0.012,0.384 -0.036,0.504 l -4.068,-0.011 z m 3.084,-0.757 c 0.012,-0.659 -0.276,-1.716 -1.452,-1.716 -1.08,0 -1.536,0.984 -1.62,1.716 h 3.072 z" /><path
       inkscape:connector-curvature="0"
       id="path254"
       d="m 285.177,196.202 c 0,-0.744 -0.012,-1.344 -0.048,-1.896 h 0.948 l 0.06,0.995 h 0.024 c 0.42,-0.72 1.116,-1.128 2.052,-1.128 1.416,0 2.472,1.188 2.472,2.952 0,2.088 -1.284,3.12 -2.64,3.12 -0.78,0 -1.44,-0.336 -1.788,-0.912 h -0.024 v 3.156 h -1.056 v -6.287 z m 1.056,1.548 c 0,0.145 0.012,0.3 0.048,0.433 0.18,0.731 0.828,1.235 1.572,1.235 1.116,0 1.764,-0.912 1.764,-2.244 0,-1.164 -0.6,-2.159 -1.716,-2.159 -0.72,0 -1.404,0.504 -1.608,1.296 -0.024,0.144 -0.06,0.3 -0.06,0.432 v 1.007 z" /><path
       inkscape:connector-curvature="0"
       id="path256"
       d="m 293.276,192.914 v 1.393 h 1.512 v 0.804 h -1.512 v 3.132 c 0,0.72 0.204,1.128 0.792,1.128 0.288,0 0.456,-0.023 0.612,-0.072 l 0.048,0.805 c -0.204,0.071 -0.528,0.144 -0.936,0.144 -0.492,0 -0.888,-0.168 -1.14,-0.443 -0.288,-0.324 -0.408,-0.841 -0.408,-1.524 v -3.168 h -0.9 v -0.804 h 0.9 v -1.068 l 1.032,-0.327 z" /><path
       inkscape:connector-curvature="0"
       id="path258"
       d="m 300.068,198.723 c 0,0.504 0.024,0.995 0.084,1.392 h -0.948 l -0.096,-0.732 h -0.036 c -0.312,0.456 -0.948,0.864 -1.776,0.864 -1.176,0 -1.776,-0.828 -1.776,-1.668 0,-1.404 1.248,-2.172 3.492,-2.16 v -0.12 c 0,-0.479 -0.132,-1.355 -1.32,-1.344 -0.552,0 -1.116,0.156 -1.524,0.432 l -0.24,-0.708 c 0.48,-0.3 1.188,-0.504 1.92,-0.504 1.788,0 2.22,1.212 2.22,2.376 v 2.172 z m -1.032,-1.573 c -1.152,-0.024 -2.46,0.18 -2.46,1.308 0,0.696 0.456,1.008 0.984,1.008 0.768,0 1.26,-0.479 1.428,-0.972 0.036,-0.107 0.048,-0.228 0.048,-0.336 v -1.008 z" /><path
       inkscape:connector-curvature="0"
       id="path260"
       d="m 301.76,191.594 h 1.056 v 8.521 h -1.056 v -8.521 z" /><path
       inkscape:connector-curvature="0"
       id="path262"
       d="m 312.128,191.594 v 7.021 c 0,0.516 0.012,1.104 0.048,1.5 h -0.948 l -0.048,-1.008 h -0.024 c -0.323,0.647 -1.02,1.14 -1.967,1.14 -1.404,0 -2.496,-1.188 -2.496,-2.952 -0.013,-1.943 1.199,-3.12 2.604,-3.12 0.9,0 1.5,0.42 1.752,0.876 h 0.023 v -3.456 h 1.056 z m -1.056,5.076 c 0,-0.144 -0.012,-0.312 -0.047,-0.456 -0.156,-0.659 -0.732,-1.212 -1.524,-1.212 -1.093,0 -1.74,0.96 -1.74,2.232 0,1.188 0.588,2.16 1.716,2.16 0.709,0 1.356,-0.48 1.549,-1.261 0.035,-0.144 0.047,-0.287 0.047,-0.455 v -1.008 z" /><path
       inkscape:connector-curvature="0"
       id="path264"
       d="m 314.48,197.391 c 0.024,1.428 0.924,2.016 1.98,2.016 0.756,0 1.225,-0.132 1.607,-0.288 l 0.192,0.744 c -0.372,0.168 -1.021,0.372 -1.944,0.372 -1.775,0 -2.855,-1.188 -2.855,-2.928 0,-1.765 1.044,-3.145 2.736,-3.145 1.896,0 2.388,1.668 2.388,2.736 0,0.216 -0.013,0.384 -0.036,0.504 l -4.068,-0.011 z m 3.084,-0.757 c 0.013,-0.659 -0.275,-1.716 -1.451,-1.716 -1.08,0 -1.537,0.984 -1.621,1.716 h 3.072 z" /><path
       inkscape:connector-curvature="0"
       id="path266"
       d="m 319.988,200.114 v -5.004 h -0.804 v -0.804 h 0.804 v -0.276 c 0,-0.816 0.192,-1.561 0.685,-2.028 0.396,-0.384 0.924,-0.54 1.403,-0.54 0.385,0 0.696,0.084 0.9,0.168 l -0.132,0.816 c -0.168,-0.072 -0.372,-0.132 -0.685,-0.132 -0.888,0 -1.127,0.792 -1.127,1.68 v 0.313 h 1.403 v 0.804 h -1.392 v 5.004 h -1.055 z" /><path
       inkscape:connector-curvature="0"
       id="path268"
       d="m 323.852,197.391 c 0.024,1.428 0.924,2.016 1.979,2.016 0.756,0 1.225,-0.132 1.608,-0.288 l 0.192,0.744 c -0.372,0.168 -1.021,0.372 -1.944,0.372 -1.776,0 -2.856,-1.188 -2.856,-2.928 0,-1.765 1.045,-3.145 2.736,-3.145 1.896,0 2.389,1.668 2.389,2.736 0,0.216 -0.013,0.384 -0.037,0.504 l -4.067,-0.011 z m 3.084,-0.757 c 0.012,-0.659 -0.276,-1.716 -1.452,-1.716 -1.08,0 -1.536,0.984 -1.62,1.716 h 3.072 z" /><path
       inkscape:connector-curvature="0"
       id="path270"
       d="m 333.404,199.91 c -0.275,0.132 -0.889,0.336 -1.668,0.336 -1.752,0 -2.893,-1.188 -2.893,-2.976 0,-1.788 1.225,-3.097 3.121,-3.097 0.623,0 1.176,0.156 1.463,0.313 l -0.24,0.804 c -0.252,-0.132 -0.647,-0.275 -1.223,-0.275 -1.332,0 -2.053,0.995 -2.053,2.208 0,1.344 0.864,2.172 2.016,2.172 0.601,0 0.996,-0.145 1.297,-0.276 l 0.18,0.791 z" /><path
       inkscape:connector-curvature="0"
       id="path272"
       d="m 336.068,192.914 v 1.393 h 1.512 v 0.804 h -1.512 v 3.132 c 0,0.72 0.203,1.128 0.791,1.128 0.289,0 0.457,-0.023 0.613,-0.072 l 0.047,0.805 c -0.203,0.071 -0.527,0.144 -0.936,0.144 -0.492,0 -0.889,-0.168 -1.141,-0.443 -0.287,-0.324 -0.407,-0.841 -0.407,-1.524 v -3.168 h -0.9 v -0.804 h 0.9 v -1.068 l 1.033,-0.327 z" /><path
       inkscape:connector-curvature="0"
       id="path246"
       d="m 326.462,184.322 c 0,0.504 0.023,0.995 0.084,1.392 h -0.948 l -0.097,-0.732 h -0.035 c -0.313,0.456 -0.948,0.864 -1.776,0.864 -1.176,0 -1.776,-0.828 -1.776,-1.668 0,-1.404 1.248,-2.172 3.492,-2.16 v -0.12 c 0,-0.479 -0.132,-1.355 -1.32,-1.344 -0.551,0 -1.115,0.156 -1.523,0.432 l -0.24,-0.708 c 0.48,-0.3 1.188,-0.504 1.92,-0.504 1.789,0 2.221,1.212 2.221,2.376 v 2.172 z m -1.032,-1.572 c -1.151,-0.024 -2.46,0.18 -2.46,1.308 0,0.696 0.456,1.008 0.984,1.008 0.768,0 1.26,-0.479 1.428,-0.972 0.035,-0.107 0.048,-0.228 0.048,-0.336 v -1.008 z" /><path
       inkscape:connector-curvature="0"
       id="path244"
       d="m 319.562,177.193 h 1.057 v 8.521 h -1.057 v -8.521 z" /><text
       xml:space="preserve"
       style="font-size:11.71702862px;font-style:normal;font-variant:normal;font-weight:normal;font-stretch:normal;text-align:start;line-height:100%;letter-spacing:0px;word-spacing:0px;writing-mode:lr-tb;text-anchor:start;fill:#000000;fill-opacity:1;stroke:none;font-family:Consolas;-inkscape-font-specification:Consolas"
       x="294.42914"
       y="174.46179"
       id="text3435"
       sodipodi:linespacing="100%"
       transform="scale(0.93880452,1.0651845)"><tspan
         sodipodi:role="line"
         id="tspan3437"
         x="294.42914"
         y="174.46179"
         style="font-size:12.78221321px">V</tspan></text>
</g></g></svg>